<?xml version="1.0" encoding="UTF-8"?>
<!DOCTYPE svg PUBLIC "-//W3C//DTD SVG 1.1//EN" "http://www.w3.org/Graphics/SVG/1.1/DTD/svg11.dtd">
<!-- Creator: CorelDRAW 2021 (64-Bit) -->
<svg xmlns="http://www.w3.org/2000/svg" xml:space="preserve" width="100%" height="100%" version="1.1" style="shape-rendering:geometricPrecision; text-rendering:geometricPrecision; image-rendering:optimizeQuality; fill-rule:evenodd; clip-rule:evenodd"
viewBox="0 0 7939.36 4537.17"
 xmlns:xlink="http://www.w3.org/1999/xlink"
 xmlns:xodm="http://www.corel.com/coreldraw/odm/2003">
 <defs>
  <style type="text/css">
   <![CDATA[
    .fil0 {fill:#FEFEFE}
   ]]>
  </style>
    <clipPath id="id0">
     <path d="M20.28 0l7919.08 0 -20.28 4537.17 -7919.08 0 20.28 -4537.17z"/>
    </clipPath>
 </defs>
 <g id="Warstwa_x0020_1">
  <metadata id="CorelCorpID_0Corel-Layer"/>
  <g id="_2132624921648">
   <g style="clip-path:url(#id0)">
    <image x="-0" y="0" width="7939.36" height="4537.17" xlink:href="chris_Images\chris_ImgID1.jpg"/>
   </g>
  </g>
  <g>
   <path class="fil0" d="M795.15 2792.96c12.32,-6.11 28.81,-21.64 40.66,-32.16 22.74,-20.17 104.53,-95.32 130.53,-94.46 7.98,33.52 2.06,44.13 25.33,69.99 38.7,43 116.2,34.42 115.23,-16.08 -0.28,-14.39 -8.99,-25.94 -23.99,-24.46 -17.73,1.74 -12.86,12.33 -29.01,21.62 -39.06,-2.83 -46.12,-42.71 -29.57,-76.18 56.74,-114.75 253.81,-51.9 195.51,35.03 -28.53,-0.92 -56.49,-47.73 -95.77,-31.6 -11.84,54.05 55.11,50.59 71.98,86.17 4.87,27.05 -75.44,50.47 -95.73,63.96 -19.65,13.07 -24.48,19.4 -50.04,28.22 -20.35,7.01 -44.04,14.65 -67.27,14.09 -87.98,-2.11 -56.81,90.16 35,104.04 25.1,3.8 42.05,10.41 64.19,16.88l-11.97 133.95c-30.94,7.68 -46.12,-15.35 -84.92,13.39 -46.14,34.17 -42.77,108.43 9.1,135.29 46.54,24.09 62.13,-3.57 91.33,-2.54 13.78,32.38 16.56,80.79 37.39,114.56 9.14,14.81 18.11,17.26 19.23,33.89 -6.88,7.41 -131.78,54.92 -149.77,59.38 -82.8,20.58 -67.5,75.59 -19.68,113.76 91.78,73.28 192.55,90.91 283.46,141.74 65.93,36.86 77.63,40.53 149.4,63.51 89.36,28.6 51.43,-79.41 18.13,-103.31 -16,-11.49 -23.23,-6.18 -40.66,-12.9 -13.21,-5.1 -17.55,-15.35 -30.55,-22.28 -18.93,-10.1 -24.87,0.82 -41.41,-4.6 -12.21,-3.99 -34.45,-34.09 -105.86,-53.61 -22.74,-6.22 -70,-8.8 -72.87,-32.8 35.53,-26.19 132.86,11.17 181.66,-23.34 33.68,-23.83 -0.73,-34.26 62.33,-39.28 61.58,-4.9 126.85,-8.06 186.22,-24.06 27.32,-7.36 49.32,-19.3 73.93,-28.82 32.25,-12.47 42.84,8.3 68.58,24.06 101.74,62.32 131.17,55.47 256.23,55.69 23.05,0.04 24.8,0.73 35.41,14.18 7.79,9.87 14.81,18.52 23.33,29.95 17.28,23.17 28.19,38.91 49.84,56.49 43.38,35.23 222.61,145.13 298.25,97.93 4.57,-27.7 -23.77,-87.01 -38.15,-99.24 -33.86,-28.82 -60.34,10.72 -109.62,-21.57 -13.66,-8.95 -18.54,-21.54 -36.47,-30.86 -44.05,-22.9 -49.63,-4.49 -83.16,-55.18 -4.29,-6.49 -9.41,-14.56 -13.2,-22.53 -12.87,-27.08 -1.45,-41.14 35.07,-9.9 9.78,8.37 23.23,17.81 37.79,26.07 25.98,14.72 57.6,27.47 88.72,38.8 61.59,22.41 140.13,49.99 205.33,19.57 0.98,-17.54 -21.05,-130.2 -101.69,-101.86 -53.97,18.96 -62.88,-20.73 -102.01,-32.69 -24.43,-7.47 -37.9,-2.19 -57.75,-16.68 -14.81,-10.81 -59.81,-59.69 -63.38,-83.6 8.28,-12 77.49,-42.39 96.66,-53.79 21.14,-12.57 77.89,-55.35 89.28,-58.43 13.5,8.46 22.61,18.99 36.29,29.86 13.67,10.86 26.06,20.57 39.47,31.42 35.77,28.96 194.56,210.07 238.25,173.57 21.53,-17.99 13.26,-86.78 -6.65,-107.4 -17.27,-17.88 -29.56,-6.66 -40.03,-31.02 -12.13,-28.21 -12.35,-19.72 -39.59,-30.96 -24.73,-10.2 -34.67,-51 -111.86,-97.39 -13.67,-8.22 -32.19,-18.42 -28.7,-38.05 38.06,-17.22 110.76,51.2 169.7,24.54 40.84,-18.49 25.78,-25.75 80.61,-12.88 29.08,6.82 58.1,12.32 87.9,17.92 31.58,5.94 61.66,12.13 95.65,11.91 105.24,-0.67 68.37,-26.93 118.81,32.55 80.79,95.25 106.19,96.11 234.65,137.61 20.64,6.67 19.71,6.28 27.8,25.04 35.85,83.17 85.65,161.23 150.39,221.97 19.12,17.95 112.77,85.51 140.44,62.67 22.4,-19.49 9.12,-96.62 -5.27,-112.69 -24.97,-27.88 -58.28,-2.66 -92.94,-45.33 -13.39,-16.49 -10.23,-25.58 -25.97,-41.37 -12.1,-12.13 -27.45,-18.54 -37.95,-29.46 -16.88,-17.56 -36.63,-74.52 -28.53,-103.46 31.9,-1.12 37.24,53.37 100.56,102.36 13.49,10.44 25.13,20.32 39.33,31.56 38.35,30.33 118.21,93.41 190.97,75.43 11.21,-22.88 -1.48,-60.37 -9.36,-86.59 -13.06,-43.42 -33.55,-31.7 -76.1,-37.64 -29.43,-4.11 -41.99,-33.87 -60.49,-52.92 -19.25,-19.81 -62.48,-24.8 -58.38,-51.42 11.99,-4.88 98.9,-4.17 122.03,-6.43 32.11,-3.13 90.33,-18.44 114.67,-17.27 43.82,58.3 119.52,106.74 178.62,154.08 43.45,34.8 70.66,74.38 118.75,104.59 12.33,7.74 61.25,39.87 73.82,40.18 35.08,0.85 35.17,-46.81 28.98,-76.24 -6.86,-32.58 -22.96,-49.11 -59,-54.67 -3.7,-45.6 -24.62,-31.02 -50.8,-43.77 -6.17,-3.01 -27.21,-45.36 -103.7,-87.85 -15.68,-8.71 -56.13,-25.26 -49.71,-42.76 31.35,-18.09 122.26,41.24 174.57,25.38 42.09,-12.77 19.91,-34.94 72.74,-24.62 61.76,12.07 129.09,26.5 192.43,25.66 103.62,-1.36 80.05,-32.19 125.74,21.52 21.86,25.69 57.7,60.47 84.5,78.53 34.46,23.21 111.52,40.12 159.55,53.11 22,5.95 20.98,5.21 29.79,23.25 5.64,11.56 11.29,23.43 16.6,37.03 11.55,29.54 18.05,48.28 36.98,72.65 41.87,53.89 183.26,197.14 262.61,162.43 5.89,-17.45 -7.1,-98.19 -22.67,-111.82 -26.63,-23.31 -64.66,-0.86 -97.17,-44.49 -14.56,-19.52 -9.46,-25.73 -30.13,-40.89 -14.56,-10.68 -29.46,-14.77 -40.37,-30.44 -12.6,-18.11 -36.33,-82.86 -28.25,-104.56 12.35,-0.34 12.5,2.2 18.89,11.13 40.17,56.13 66.89,80.33 125.08,122.95 37.52,27.49 135.44,95.34 198.29,67.74 2.99,-24.28 -9.12,-72.58 -17.51,-92.54 -20.18,-47.94 -59.32,-5.46 -110.56,-45.37 -12.9,-10.04 -15.92,-21.64 -25.83,-30.88 -23.8,-22.21 -49.22,-16.54 -68.02,-45.34 -24.51,-37.54 -43.92,-126.52 -79.08,-140.46 -27.06,-10.72 -53.52,-0.86 -90.58,-19.4 -20.16,-10.08 -54.6,-35.63 -57.75,-55.64 3.14,-16.92 71.49,-23.18 89.34,-27.45 101.61,-24.24 200.28,-68.38 281.04,-130.04 14.35,-10.95 16.71,-18.24 40.45,-18.11 47.69,0.26 51.42,-20.9 57.57,-61.59 1.22,-8.1 60.86,-83.77 73.46,-103.2 3.84,-5.93 7.41,-10.82 12.77,-15.85 36.61,-34.4 27.59,50.14 43.63,76.73 41.86,69.37 150.54,12.55 92.05,-28.24 -16.45,-11.48 -50.77,-26.24 -8.36,-62.83 44.46,-38.36 105.91,46.49 117.27,78.01 5.63,15.6 20.38,178.81 17.14,194.82 -16.05,5.68 -21.84,-3.73 -39.25,-9.79 -13.74,-4.78 -30.57,-7.86 -47.14,-7.99 -30.56,-0.25 -66.63,12.34 -90.18,22.14 -181.39,75.51 -178.08,315.63 -64.01,428.33 85.72,84.68 230.9,51.46 364.13,38.89 133.76,-12.62 266.46,-25.16 399.01,-37.89 271.73,-26.07 696.89,-67.66 963.6,-120.99 34.47,-6.89 57.97,-12.51 76.55,-33.31 77.01,-86.17 -30.8,-265.79 -162.77,-194.38 -32.09,17.37 -51.06,50.66 -65,44.37 -8.22,-3.71 -17.74,-66.28 -49.57,-99.05 -12.12,-12.47 -19.26,-12.34 -25.3,-24.74 6.42,-18.31 31.4,-37.07 43.18,-70.78 11.26,-32.2 12.09,-63.35 14.32,-99.88 27.64,-14.82 50.2,-15.6 46.64,-63.39 -2.18,-29.24 11.28,-37.96 25.2,-58.75 8.09,-12.08 1.81,-9.3 16.42,-14.1 14.18,8.18 18.96,27.49 26.36,43.05 14.73,30.95 -1.13,26.94 -0.47,54.6 0.85,35.24 39.28,63.3 77.27,43.03 28.77,-15.34 37.86,-66.39 2.41,-88.41 -26.97,-16.75 -20.93,5.57 -36.82,-30.22 -26.04,-58.67 -24.51,-55.4 41.22,-47.66 27.02,3.18 17.6,13.72 37.17,25.95 35.01,21.9 72.33,-3.62 77.67,-35.37 7.21,-42.86 -22.41,-68.78 -64.62,-58.53 -25.68,6.23 -17.31,21.04 -43.08,21.47 -14.02,0.24 -49.82,-3.45 -59.89,-7.42 -1.08,-19 12.54,-29.63 22.31,-44.49 19.52,-29.64 8.31,-13.59 42.03,-25.52 36.14,-12.78 38.01,-67.93 11.36,-87.67 -32.49,-24.05 -77.03,-5.81 -82.35,30.8 -4.57,31.42 12.89,23.96 -7.93,52.53 -8.06,11.06 -19.45,33.29 -32.01,38.94 -13.58,-5.67 -18.17,-24.63 -25.03,-38.65 -16.96,-34.62 -6.91,-18.77 -2.59,-50.13 9.33,-67.81 -65.63,-54.09 -71.93,-59.88 -19.51,-26.34 47.38,-300.88 62.93,-338.32 20.79,-50.07 50.97,-90.96 91.11,-114.06 86.97,-50.05 100.7,60.7 65.63,86.1 -23.05,-0.08 -17.59,-15.79 -45.57,-5.96 -31.38,69.06 96.3,150.78 134.13,-32.49 61.26,-296.74 -265.03,-319.58 -490.91,-22.99 -10.55,13.85 -25.62,38.99 -36.78,48.71 -18.44,-1.37 -26.32,-10.46 -49.65,-8.04 -20.79,2.16 -26.05,11.25 -42.5,16.36 -14.85,-7.64 -32.95,-28.56 -52.48,-41.26 -11.04,-7.19 -18.64,-11.16 -29.77,-16.07 -14.54,-6.41 -22.66,-5.56 -29.35,-18.77 7.88,-16.7 40.65,-24.54 57.9,-32.38 22.31,-10.14 41.69,-19.54 62.61,-29.41 238.96,-112.65 456.35,-263.49 609.33,-475.45 17.67,-24.49 55.76,-97.32 69.39,-111.52l0 -646.7 -6362.4 0 0 2016.87zm6299.04 -1544.48c7.86,25.35 -2.05,30.08 -13.36,51.54 -6.86,13.03 -23.95,32.23 -39.25,11.98 -10.95,-14.49 6.63,-36.91 13.17,-48.73 11.21,-20.25 16.12,-26.13 39.44,-14.79zm-115.08 141.14c20.82,-12.24 36.95,9.45 26.3,29.62 -35.26,66.85 -71.95,36.63 -56.22,8.17 2.25,-4.07 25.76,-35.35 29.92,-37.79zm-137.77 193.73c-7.47,-23.19 5.75,-32.54 16.83,-45.17 12.66,-14.45 18.16,-23.3 41.7,-16.6 12.15,26.74 -0.16,30.13 -14.79,47.08 -13.42,15.55 -18.91,27.12 -43.74,14.69zm-120.68 117.03c-10.42,-33.9 47.95,-78.07 64.11,-53.39 12.48,19.07 -12.04,33.44 -20.7,41.69 -16.71,15.92 -19.83,22.72 -43.41,11.7zm-90.7 48.21c32.96,-16.12 45.02,31.15 -14.28,57.9 -24.73,11.15 -60.94,-21.11 14.28,-57.9zm-182.11 146.57c-11.24,-27.02 0.88,-30.46 20.16,-41.65 12.5,-7.25 32.28,-24.26 46.61,-7.51 20.88,24.41 -39.71,59.39 -66.77,49.16zm-107.18 25.25c31.01,-12.18 55.04,31.34 -19.01,52.34 -18.12,5.14 -37.83,-8.61 -25.43,-28.5 4.86,-7.79 32.09,-18.99 44.44,-23.84zm339.74 177.74c8.39,-100.51 239.21,-213.33 322.55,-155.58 15.1,10.46 22.85,35.09 4.22,42.29 -10.34,3.99 -67.76,-8.56 -162.79,25.41 -29.48,10.54 -57.56,23.45 -84.81,38.99 -28.07,16.02 -48.33,45.31 -79.17,48.89zm-4031.08 -122.69c11.31,-5.35 41.75,-7.4 55.86,-3.24 16.59,4.89 18.91,26.84 4.18,35.62 -7.98,4.77 -45.88,6.76 -56.63,4.02 -18.8,-4.79 -21.99,-27.62 -3.41,-36.4zm158.84 26.22c-5.56,-22.57 -0.38,-32.93 25.07,-32.93 21.08,0 35.2,-2.4 50.57,5.74 16.06,53.26 -65.79,32.82 -75.64,27.19zm238.69 7.52c-12.26,6.34 -40.98,5.94 -57.13,1.84 -21.58,-5.47 -20.07,-29.18 -5.48,-36.68 22.68,-11.65 100.39,1.12 62.61,34.84zm-550.09 -23.69c16.49,-2.4 43.89,-8.56 51.71,6.58 11.42,22.14 -8.48,29.3 -24.71,31.19 -20.81,2.44 -44.29,8.08 -52.19,-8.44 -9.72,-20.31 8.77,-26.95 25.19,-29.33zm652.8 1.72c11.07,-10.19 38.8,-6.61 55.4,-3.25 17.7,3.57 26.35,23.42 11.54,34.97 -15.48,12.09 -104.46,2.84 -66.94,-31.72zm3065.13 25.3c-37.98,27.97 -90.41,33.99 -76.56,-2.88 3.02,-8.03 80.91,-57.71 76.56,2.88zm-2896.79 -13.19c11.32,-7.74 40.71,-4.09 56.15,-0.12 17.81,4.58 44.69,51.3 -44.09,36.07 -19.82,-3.4 -29.98,-23.7 -12.06,-35.95zm-968.06 6.06c18.05,-3.15 42.37,0.96 32.79,25.71 -6.55,16.91 -92,34.29 -77.63,-8.09 5.12,-15.1 25.09,-14.17 44.84,-17.62zm1140.32 9.71c10.9,-4.91 38.72,-1.43 52.72,3.08 18.94,6.09 20.75,29.51 4.19,37.04 -8.64,3.93 -46.56,-0.17 -56.28,-3.54 -19.14,-6.64 -19.63,-28.01 -0.63,-36.58zm-1348.86 37.35c11.02,-7.09 33.73,-13.74 51.2,-15.58 21.86,-2.31 34.65,13.98 23.55,30.5 -4.48,6.65 -87.68,43.38 -74.75,-14.92zm1509.94 -13.85c11.33,-8.7 39.64,-3.83 55.31,0.13 19.53,4.95 25.91,26.22 9.56,36.85 -17.63,11.47 -104.1,-6.89 -64.87,-36.98zm2328.35 45.05c-6.77,-26.91 1.04,-30.33 25.3,-37.46 13.77,-4.06 35.91,-14.71 46.42,-2.67 18.98,21.77 -4.99,32.46 -22.39,37.71 -22.94,6.94 -25.97,12.53 -49.33,2.42zm-2160.27 -22.27c11.32,-8.85 39.45,-3.88 55.11,0.67 13.24,3.84 25.1,22.44 11.62,34.33 -14.79,13.04 -109.47,-1.57 -66.73,-35zm-1838.12 60.8c-9.97,-20.93 -7.96,-31.75 17.07,-38.63 15.13,-4.17 38.78,-12.88 50.55,-3.75 37.54,29.1 -43.64,49.34 -67.62,42.38zm2008.28 -40.03c11.38,-5.34 38.4,-0.69 52.25,3.76 18.68,5.99 22.1,26.69 7.78,35.8 -10.34,6.58 -43.32,1.12 -55.76,-2.45 -19.75,-5.66 -24.95,-27.4 -4.27,-37.11zm1877.96 2.67c22.73,-4.85 61.75,31.88 -22.27,46.55 -25.24,4.4 -40.13,-12.41 -26.63,-30.44 8.13,-10.86 32.91,-12.7 48.9,-16.11zm539.75 846.63c-4.1,-18.71 15.73,-33.84 25.2,-46.65 11.38,-15.39 20.27,-27.5 30.73,-43.65 135.51,-209.24 89.59,-373.67 167.18,-577.13 14.66,-38.43 81.8,-179.09 127.01,-160.58 1.8,16.65 -3.73,18.23 -12.7,26.61 -48.92,45.72 -68.44,106.63 -86.92,171.52 -46.09,161.86 -54.06,345.15 -113.88,474.91 -17.24,37.38 -90.41,162.65 -136.62,154.97zm-3598.77 -741.31c-12.71,-9.74 -14.45,-28.49 -18.34,-44.19 -12.74,-51.37 63.32,-23.69 63.34,-23.68 11.6,11.6 -26.9,62 -45,67.87zm1401.21 -80.63c16.01,5.24 22.38,26.7 5.8,36.25 -8.96,5.17 -42.34,0.25 -53.41,-2.44 -21.69,-5.28 -26.42,-28.4 -7.53,-37.75 9.49,-4.7 43.83,0.24 55.14,3.94zm-1464.04 290.18c-8.9,-31.7 34.57,-27.42 54.3,-137.57 7.85,-43.76 32.4,8.24 97.73,-104.91 23.31,-40.36 5.27,-39.05 59.6,-37.05 18.82,0.69 82.04,0.42 95.74,4.17 16.91,4.63 11.12,18.6 5.82,34.31 -7.9,23.42 -35.12,86.12 -60.08,90.39 -11.05,-27.97 -2.57,-57.21 -24.04,-80.58 -57.37,0.76 -14.98,82.95 -26.92,127.41 -3.68,13.7 -13.41,24.73 -25.92,20.81 -14.83,-26.44 1.53,-67.6 -46.65,-44.09 -11.41,38.61 9.38,82.6 -31.62,103.67 -17.01,8.74 -78.4,37.38 -95.25,28.79l-2.71 -5.35zm-881.74 -278.27c16.25,-4.5 37.27,3.45 27.78,25.47 -8.61,20 -95.19,38.21 -76.7,-5.25 6.1,-14.33 31.61,-15.43 48.92,-20.22zm1233.99 82.31c-4.84,-13.26 3.07,-21.11 7.56,-37.01 12.03,-42.59 -5.99,-40.41 57.58,-35.96 20.01,1.4 29.8,-1.31 40.97,8.69 -2.34,16.5 -26.83,25.6 -49.79,36.92 -30.32,14.94 -38.76,35.6 -56.32,27.36zm2631.35 -53.4c-15.91,12.2 -71.98,29.92 -78.5,1.99 -7.32,-31.37 55.01,-36.35 75.2,-27.93 3.27,8.03 4.73,14.71 3.3,25.94zm391.25 13.37c18.35,-23.11 170.71,-64.17 245.92,-34.62 12.66,4.98 16.55,5.88 17.12,23.28 -12.6,9 -50.3,12.35 -74.87,27.47 -27.98,17.2 -30.98,25.15 -51.37,52.14 -15.48,-1.33 -128.27,-56.82 -136.8,-68.27zm-1802.51 -32.78c18.76,-14.31 103.36,4.67 66.73,35.2 -16.99,14.16 -106.86,-4.57 -66.73,-35.2zm-1885.18 15.05c2.15,17.56 -14.27,35.69 -15.4,63.71 -2.78,69.59 56.23,115.7 120.98,102.09 86.89,-18.27 65.96,-140.76 20.99,-120.44 -18.65,8.42 -4.88,43.94 -13.06,61.12 -12.83,26.94 -85.38,17.75 -81.38,-42.46 5.44,-82.05 149.44,-93.88 211.47,-84.37 37.72,5.79 81.88,32.31 72.88,70.89 -20.65,0.01 -20.35,-8.13 -34.12,-17.38 -37.89,-25.45 -57.36,7.38 -47.38,26.86 15.02,16.11 31.61,12.11 49.4,38.43 12.95,19.16 17.68,46.06 10.56,68.96 -22.37,0.45 -27.3,-15.35 -40.52,-28.43 -11.12,-11 -28.86,-27.47 -45.6,-7.76 -29.9,39.87 132.89,107.22 -5.36,119.37 -71.74,6.31 -64.96,22.19 -136.2,19.74 -31.95,-1.09 -48.33,-12.13 -67.4,-12.5 -40.48,-0.79 -53.37,47.73 -12.61,91.6 26.56,28.58 48.41,14.33 94.28,61.74 -6.75,22.64 -28.45,60.92 -39.07,91.57 -11.13,32.15 -18.35,70.21 -28.62,99.35 -19.51,5.17 -160.93,25.87 -176.41,24.38 -45.03,-78.61 -132.53,-58.83 -151.35,9.65 -6.82,24.8 -9.34,24.21 -34.08,29.46 -34.52,7.32 -140.62,35.4 -158.91,33.05 -11.87,-19.86 -0.64,-26.83 -22.97,-48.31 -18.7,-18 -35.85,-11.72 -45.39,-21.9 -3.75,-4.01 -19.67,-39.78 -23.5,-47.4 -7.01,-13.96 -20.37,-30.94 -17.01,-48.54 20.68,-5.06 42.84,0.14 62.86,1.06 38.5,1.77 39.85,-2.64 51.4,14.01 53.74,77.47 155.12,-23.07 85.15,-78.11 -47.47,-37.34 -89.25,17.22 -89.68,17.42 -14.58,3.65 -91.05,-0.97 -104.56,-7.23 -10.41,-10.53 42.31,-78.8 54.14,-96.06 106.36,9.66 75.14,-153.79 -17.27,-110.23 -52.21,24.62 -19.99,74.87 -29.54,94.47 -7.89,16.21 -45.17,74.41 -60.62,78.17 -6.39,-8.07 -46.3,-86.49 -46.9,-92.49 -1.53,-15.16 16.91,-25.26 8.1,-58.22 -5.59,-20.95 -21.53,-26.39 -32.3,-40.06 4.17,-17.54 52.3,-49.59 69.21,-63.15 23.34,-18.71 43.54,-39.44 71.97,-55.6 140.45,-79.86 338.54,-32.9 342.53,86.8 3.48,104.55 -125.08,106.36 -124.6,38.1 26.32,-22.28 39.8,-18.88 44.55,-28.58 2.6,-19.51 -0.53,-23.8 -9.66,-32.96 -26.26,-15.04 -120.76,41.08 -65.97,114.93 72.24,97.37 243.15,10.72 196.09,-132.6 -13.87,-42.24 -38.37,-63.62 -69.76,-89.33 -68.41,-56.04 76.92,-63.23 126.7,-72.89 25.83,-5.01 136.65,-28.57 153.94,-19.93zm2056.24 3.31c10.97,-5.78 40.31,-1.85 54.63,2.41 17.19,5.1 20.58,26.29 6.6,35.02 -25.46,15.9 -110.1,-11.7 -61.23,-37.43zm1043.18 0.06c18.15,-2.7 35,-1.1 32.5,20.88 -2.23,19.57 -25.23,18.38 -42.97,20.82 -19.4,2.67 -42.42,1.63 -37.36,-23.08 4.11,-20.08 30.11,-16 47.83,-18.62zm-2679.37 284.84c4.94,-18.33 9.62,-15.44 25.8,-23.12 9.59,-4.54 19.7,-11.72 28.39,-17.57 52.1,-35.06 58.75,-22.02 105.56,-78.85 17.32,-21.02 29.79,-19.07 61.1,-27.63 81.07,-22.17 104.98,-95.38 232.59,-128.52 200.21,-52 293.62,213.79 132.11,227.21 -61.11,5.07 -102.04,-48.2 -84.44,-80.14 31.23,-5.12 29.13,15.49 51.09,20.35 57.42,12.69 68.62,-97.46 -38.77,-78.6 -95.8,16.83 -72.19,118.74 -15.25,160.73 67.08,49.45 159.75,17.38 195.53,-30.92 67.81,-91.53 -30.76,-182.11 -24.92,-208.92 23.59,-4.42 295.84,30.5 309.71,39.41 2.74,21.58 -11.37,12.01 -34.61,44 -104.09,143.27 61.56,224.56 126.41,169 25.98,-22.26 44.09,-71.83 13.34,-107.41 -58.03,-5.19 -17.71,33.94 -41.06,61.89 -20.47,24.52 -56.74,16.61 -73.6,-5.45 -20.58,-26.94 -6.85,-60.92 7.19,-82.25 50.03,-76.02 164.45,-51.35 218.09,12.85 18.44,22.07 80.63,99.19 64.9,148.98 -11.4,-5.12 -52.63,-48.77 -64.51,-10.46 -9.76,31.47 76.57,55.3 22.48,85.78 -12,6.76 -55.14,3.76 -100.39,20.42 -69.91,25.75 -112.76,2.47 -136.97,1.79 -59.9,-1.69 -36.65,68.21 -10.75,92.23 28.79,26.72 81.36,25.44 98.3,59.94 -1.21,7.96 -18.95,38.92 -24.82,55.24 -6.97,19.35 -11.13,42.67 -19.66,58 -87.06,2.1 -108.79,-17.1 -132.12,-20.54 -39.11,-5.74 -96.68,16.41 -130.52,-14.72 3.6,-16.48 56.73,-54.75 56.74,-54.75 0,0 74.6,15.98 85.53,-51.78 7.07,-43.85 -29.17,-70.06 -72.21,-60.84 -59.93,12.84 -36.07,67.17 -53.77,84.34 -12.05,11.68 -59.57,57.37 -75.26,56.66 -8.02,-12.76 -12.9,-48.96 -16.88,-67.74 -11.25,-52.98 -3.14,-26.51 11.84,-58.27 21.83,-46.23 -21.09,-93.19 -67.06,-81.79 -45.03,11.16 -61,70.38 -23.22,101.34 29.4,24.09 22.1,-1.73 32.27,48.55 3.38,16.71 17.76,52.04 6.47,64.46 -11.43,12.13 -34.67,-2.2 -67.77,-13.05 -54.79,-17.96 -20.12,-14.03 -47.29,-44.87 -12.65,-14.37 -44.7,-27.32 -69.83,-13.55 -27.52,15.08 -23.58,28.23 -35.36,52.41 -25.07,0.89 -200.97,-21.76 -213.75,-27.99 -10.29,-7.28 -21.78,-60.25 -81.33,-59.86 -48.45,0.32 -60.95,28.85 -78.43,58.56 -30.21,3.14 -202.62,16.59 -219.32,10.63 -5.19,-14.76 7.11,-81.02 12.05,-96.9 7.57,-24.39 31.58,-49.86 45.59,-71.36 21.33,-2.39 40.32,6.51 69.21,1.13 72.24,-13.46 103.16,-99.66 97.03,-108.75 -15.91,-14.48 -32.91,-6.33 -55.45,-9.3zm1867.68 -230.41c-53.08,15.56 -97.99,-15.38 -68.64,-36.06 2.08,-1.46 93.79,-19.33 68.64,36.06zm631.58 -34.94c19.99,-2.16 41.69,-4.96 45.41,14.06 6.27,32.09 -74.82,37.15 -80.1,12.01 -4.94,-23.57 15.62,-24.01 34.69,-26.07zm-3649.91 0.74c23.1,-6.35 39.48,10.2 25.63,29.66 -6.05,8.5 -35.34,16.17 -45.55,18.6 -22.69,5.4 -38.78,-10.12 -26.09,-29.33 6.57,-9.96 31.97,-15.07 46.01,-18.93zm3188.06 13.96c17.62,56.01 -68.45,31.58 -74.01,24.52 -12.15,-15.4 -0.26,-30.75 19.34,-31.96 18.69,-1.16 42.74,1.68 54.67,7.44zm336.37 0.13c6.93,22.93 2.99,33.21 -22.24,34.98 -16.68,1.18 -42.66,4.67 -51.72,-6.85 -29.27,-37.17 51.8,-38.1 73.96,-28.13zm-217.01 37.98c-39.53,0 -42.25,-39.55 -0.28,-40.41 36.45,-0.74 61.73,-0.12 47.64,36.69 -17.18,5.08 -29.14,3.72 -47.36,3.72zm1502.29 -41.51c31.83,-12.59 48.48,37.5 17.1,46.9 -34.69,10.4 -46.15,-35.42 -17.1,-46.9zm-4967.96 43.44c29.92,-9.38 56.43,30.38 -20.13,49.26 -25.65,6.32 -38.76,-13.06 -26.01,-30.15 6.89,-9.23 33.5,-15.15 46.14,-19.11zm2600.8 114.72c-11.37,-5.66 -33.52,-33.03 -43.57,-46 -11.23,-14.49 -34.67,-33.53 -34.59,-51.33 15.29,-9.79 99.84,13.45 113.92,21.76 36.81,21.73 -6.96,74.68 -35.76,75.57zm776.42 250.73c-13.02,-37.65 88.26,-130.9 -12.78,-239.17 -33.26,-35.64 37.88,-22.92 65.78,-22.85 284.39,0.64 507.18,-12.85 784.56,-69.94 150.14,-30.91 67.86,-20.82 79.08,68.73 6.94,55.43 23.71,27.28 -6.75,74.41 -19.86,30.71 -16.98,43.85 -27.5,78.66 -26.51,3.01 -34.04,-29.4 -53.88,-41 -0.54,-41.4 14.25,-42.29 -21.74,-67.41 -18.12,-12.64 -37.28,-25.18 -61.61,-33.93 -32.36,-11.65 -52.66,-7.05 -63.24,19.76 -12.6,31.91 -8.19,42.4 -48.17,39.83 -29.6,-1.9 -51.97,7.06 -70.57,22.5 -24.67,20.48 -45.47,10.3 -83.35,13.32 -71.65,5.7 -137.9,28.24 -158.52,29.41 -22.54,-39.32 -58.53,-58.16 -102.7,-43.43 -48.23,16.07 -50.33,50.1 -48.45,105.18 -25.05,13.23 -55.8,24.78 -83.32,39.46 -21.09,11.25 -61.29,35.87 -86.84,26.47zm1406.48 -281.93c9.85,-121.92 110.75,-102.92 125.43,-77.03 18.52,32.64 13.61,19.86 36.5,41.04 -0.67,12.53 -6.3,23.2 -11.53,30.67 -30.24,-3.03 -37.23,-40.2 -67.09,5.03 -21.59,32.69 -26.96,55.29 -44.49,58.33 -7.96,-9.88 -10.3,-23.09 -14.07,-34.4 -7.98,-23.94 -6.66,-15.88 -24.75,-23.64zm330.89 436.88c-10.63,-25.13 -20.58,-468.08 65.82,-476.09 3.77,15.32 -25.96,207.31 -25.96,253.81 -0.04,55.45 3.51,132.76 -5.06,184.12 -3.88,23.26 -7.37,43.58 -34.8,38.16zm-771.31 -437c-8.31,-43.25 39.91,-85.54 72.01,-97.34 52.49,-19.28 90.61,-7.34 137.39,12.05 73.63,30.51 189.57,79.74 163.82,172.05 -21.6,3.01 -18.54,-10.84 -37.06,-25.93 -58.04,-47.32 -134.02,-39.67 -190.44,-53.79 -15.49,-3.88 -30.84,-10.29 -46.27,-14.17 -54.19,-13.65 -71.52,14.72 -99.45,7.13zm-1748.98 225.36c-2.87,-16.87 19.57,-49.51 28.08,-66.86 11.86,-24.19 16.66,-45.05 23.59,-72.04 7.54,-29.37 26.33,-34.17 44.69,-51.29 50.78,-47.36 20.64,-79.62 66.46,-73.41 14.33,1.94 26.79,3.61 41.41,5.49 35.75,4.6 74.08,2.66 74.16,20.05 0.05,11.08 -48.02,109.05 -73.39,113.98 -14.9,-23.55 -0.35,-54.42 -46.65,-42.42 -13.74,29.62 10.89,94.71 -20.7,100.91 -11.71,-14.25 -0.58,-44.99 -28.74,-48.19 -46.59,-5.28 2.14,76.69 -53.66,102.17 -13.86,6.34 -39.01,17.05 -55.25,11.61zm-2725.95 -245.39c7.58,26.52 -0.89,29.3 -23.3,38.23 -14.44,5.77 -36.14,18.35 -47.47,4.48 -23.41,-28.65 46.41,-55.97 70.77,-42.71zm5154.78 5.6c27.63,-18.79 0.58,46.83 -2.43,58.24 -6.91,26.29 -11.33,52 -15.68,79.88 -5.21,33.33 -14.62,46.49 -31.67,63.94 -4.78,4.89 -45.69,48.72 -46.82,49.23 -46.17,20.7 50.46,-219.92 96.6,-251.29zm-2148.65 110.93c0.53,-11.03 40.6,-84.21 49.05,-94.3 14.98,-17.9 28.2,-17.01 55.99,-13.49 20.18,2.55 44.09,3.66 62.26,8.14 -1.12,21.71 -36.83,34.5 -75.79,62.04 -19.06,13.47 -59.27,43.25 -91.51,37.61zm-2896.34 47.06c-11.4,-59.15 16.67,-80.46 59.02,-96.34 23.88,-8.96 95.62,-36.28 117.07,-33.45 0.77,18.03 -18.09,25.73 -37.7,41.95 -39.17,32.38 -91.68,102.01 -138.39,87.84zm-288.62 -100.65c20.37,-7.01 38.34,14.82 21.6,32.34 -1.97,2.06 -38.07,20.9 -42.81,22.04 -22.65,5.46 -62.7,-25.49 21.21,-54.38zm4758.83 11.12c10.57,38.4 -22.87,41.62 -33.12,26.18 -13.74,-20.7 5.71,-38.83 33.12,-26.18zm134.32 48.88c-9.03,5.08 -15.01,11.74 -26.5,6.95 -8.47,-3.54 -14.02,-13.26 -11.04,-24.3 4.89,-18.16 42.24,-26.31 37.54,17.35zm-1889.6 147.26c4.87,-13.37 29.9,-20.71 54.48,-34.15 27.49,-15.02 29.36,-22.62 47.94,-37.02 26.6,-20.61 92.86,-26.05 129.35,-40.84 40.98,-16.62 72.51,-45.17 106.57,-67.05 156.45,-100.53 327.7,-41.62 330.76,79.78 3.36,133.19 -167.45,125.67 -181.83,55.14 -5.88,-28.88 18.01,-52.53 37.78,-34.61 9.33,8.46 4.24,18.24 19.23,23.64 11.74,4.23 24.82,-0.9 29.82,-8.94 20.05,-32.22 -40.1,-84.04 -91.08,-62.41 -76.43,32.41 -53.15,174.13 76.95,179.02 21.51,0.81 71.27,-17.17 63.39,17.31 -3.61,15.77 -35.79,26.42 -50.68,34.97 -36.85,21.18 -69.72,42.21 -107.79,62.31 -47.8,25.24 -196.61,84.87 -258.92,80.06 -14.18,-23.28 -32.31,-45.1 -68.48,-47.72 -36.41,-2.64 -63.7,18.32 -75.17,40.25 -11,21.04 -2.86,26.37 -30.44,27.4 -33.25,1.23 -151.04,3.52 -169.96,-1.58 -17.9,-56.6 42.23,-139.46 49.36,-142.68 54.53,-2.9 76.4,7.19 114.38,-26.23 20.19,-17.76 13.53,-22.46 26.17,-44.47 8.62,-14.99 22.8,-25.36 18.28,-47.91 -22.13,-4.83 -56.89,2.62 -70.11,-4.27zm2168.94 -53.85c-59.99,11.02 -40.49,-22.57 -21.22,-45.47 11,-13.07 29.6,-46.81 47.74,-47.53 5.64,19.79 -18.53,78.03 -26.52,93zm-5134.98 -20.32c20.64,-16.55 113.28,-52.45 146.06,-66.08 51.33,-21.34 69.56,-42.71 50.03,54.31 -5.16,25.64 -3.63,30.47 -16.15,38.06 -20.21,-7.99 -17.59,-39.07 -34.94,-48.65 -28.55,-15.75 -38.83,13.24 -28.46,39.54 7.75,19.64 57.43,101.21 12.69,109.9 -7.65,-8.74 -33.08,-73.47 -57.9,-44.48 -17.89,16.8 34.29,82.93 4.31,117.64 -11.15,12.91 -63.08,62.36 -87.98,52.25 -11.66,-9.81 6.02,-34.77 12.55,-56.46 31.68,-105.33 1.6,-155.95 -0.21,-196.03zm-189.89 -55.07c31.01,-13.64 54.62,28.57 -16.17,55.41 -21.74,8.24 -62.94,-20.64 16.17,-55.41zm4983.49 24.04c0.07,31.55 -36.3,27.99 -52.33,13.53 -17.65,-15.94 -15.92,-52.41 11.1,-58.45 8.49,14.02 1.64,20.89 12.6,31.25 6.46,6.12 21.94,9.08 28.63,13.67zm-452.65 210.67c-20.13,2.72 -31.49,-4.71 -48.45,-10.86 -54.2,-19.67 -36.33,-18.87 3.47,-101.21 12.86,-26.6 24.81,-51.88 36.95,-76.43 11.19,-22.62 25.26,-60.4 35.47,-76.57 20.58,-1.09 44.42,8.13 56.77,18.6 9.42,39.25 -20.48,99.95 -32.92,132 -11.89,30.62 -33.38,93.61 -51.29,114.47zm-3015.53 -193.54c0.45,-36.2 40.78,-32.53 47.82,-16.26 8.86,20.47 -25.23,36.75 -47.82,16.26zm-915.08 11.28c-34.09,-0.98 -27.83,-32.95 -10.03,-36.93 21.75,-4.86 36.36,20.83 10.03,36.93zm195.76 -29.71c22.39,-14.61 38.6,18.71 19.44,31.32 -17.78,11.7 -44.66,-14.86 -19.44,-31.32zm885.1 61.78c6.16,-35.76 67.22,-36.84 102.84,-39.7 -16.84,30.67 -56.64,63.59 -102.84,39.7zm3438.39 -86.2c22.85,7.12 28.24,46.9 20.56,73.53 -23.24,80.62 -136.33,109.59 -207.23,94.78 -35.79,-7.47 -109.39,-33.31 -140.92,-60.77 -54.35,-47.34 7.36,-132.28 26.31,-136.54 10.67,10.65 11.4,23.95 22.6,38.08 9,11.37 16.41,23.09 26.9,33.34 55.92,54.67 179.68,29.86 225.54,-12.2 11.34,-10.41 13.25,-22.7 26.24,-30.22zm-1222.03 205.35c13.76,-16.36 81.67,-41.56 106.01,-52.84 30.84,-14.29 27.67,-19.86 61.41,-9.32 69.53,21.73 95.27,-48.2 101.37,-54.55 13.26,-13.81 160.71,-48.53 193.88,-31.25 5.16,23.91 -18.19,28.11 -36.83,39.35 -46.32,27.94 -84.92,70.26 -119.52,110.94 -22.94,26.97 -44.56,56.15 -66.17,86.28 -32.78,45.68 -42.63,79.1 -73.31,76.47 -14.71,-20.15 -5.69,-36.69 -28.7,-52.47 -18.4,-12.61 -44.25,-12.65 -61.21,0.48 -21.34,16.52 -10.86,33.28 -36.89,44.66 -67.09,29.32 -61.06,24.81 -52.19,-38.11 3.86,-27.43 11.59,-19.2 25,-35.05 33.88,-40.06 -9.4,-68.89 -12.85,-84.59zm1339.54 -130.44c-19.63,7.34 -56.71,16.27 -46.52,-21.21 1.5,-5.52 26.93,-37.94 41.07,-38.27 9.66,14.71 7.46,40.56 5.45,59.48zm-1162.97 -37.16c39.67,-22.47 63.97,42.07 28.73,58.27 -39.45,18.15 -68.71,-35.62 -28.73,-58.27zm-3982.05 64.81c6.39,-17.06 35.28,-26.42 51.91,-25.16 2.57,6.49 5.44,14.46 7.51,23.78 12.89,57.95 -56,7.44 -59.42,1.38zm-209.7 -11.71c13.37,25.19 2.27,29.79 -16.52,42.79 -10.91,7.54 -27.71,27.45 -44.46,14.16 -20.41,-16.22 2.28,-33.36 13.64,-41.45 16.18,-11.5 22.84,-22.85 47.34,-15.5zm5386.05 128.79c-2.49,-19.9 1.64,-43.2 2.81,-63.98 1.63,-28.94 3.28,-36.81 35.72,-30.45 21.4,4.19 11.04,21.67 6.2,43.41 -3.77,16.94 -6.41,37.59 -13.31,50.76l-31.42 0.26zm-880.53 -23.39c-20.1,1.04 -36.9,0.14 -57.23,3.63 -10.89,1.87 -41.13,12.28 -47.16,10.53 -26.21,-7.6 34.9,-52.6 42.22,-58.2 64.74,-49.49 117.33,-38.19 84.74,10.51 -8.45,12.63 -13.92,24.95 -22.57,33.53zm827.39 33.91c-10.3,5.56 -24.56,8.33 -36.89,9.98 -20.99,2.8 -20.69,-3.24 -18.97,-21.33 7.07,-74.51 -1.36,-86.77 45.97,-91.12 19.9,-1.82 20.92,3.62 19.43,22.48 -1.67,21.14 -1.87,63.44 -9.54,79.99zm-4941.05 94.96c0.62,-16.49 18.44,-28.91 28.19,-38.42 13.87,-13.53 19.25,-20.75 31.12,-36.23 24.02,-31.32 38.27,-31.22 59.32,-75.55 37.16,-78.26 0.74,-34.21 64.18,-70.4 46.26,-26.39 55.58,-49.8 75.94,-53.63 15.95,12.87 14.23,23.57 30.37,31.85 22.64,11.62 28.3,1.12 40.34,23.71 7.82,14.65 36.4,63.72 35.04,80.38l-1.75 5.85c-15.75,5.27 -39.38,0.28 -57.83,-0.64 -36.81,-1.84 -28.16,3.65 -46.12,-18.57 -56.94,-70.47 -152.53,37.09 -78.66,85.74 36.2,23.84 64.9,4.18 86.09,-21.05 18.94,-0.95 81.07,2.18 94.33,7.07 3.28,18.71 -19.99,44.04 -29.06,57.63 -32.71,49.05 -17.19,32.65 -49.27,39.52 -48.64,10.43 -62.36,76.73 -21.03,104.96 45.93,31.37 103.67,-8.28 91.11,-62.71 -7.15,-30.97 5.11,-35.87 20.15,-58.48 14.56,-21.87 23.76,-43.15 38.71,-46.43 14.48,10.75 32.78,58.05 42.9,77.99 13.39,26.39 0.87,18.03 -3.81,43.03 -5.12,27.3 7.03,29.36 6.09,48.46l-522.96 162.73c-24.63,-48.22 -7.44,-109.17 10.44,-154.25 45.85,-10.79 67.24,-11.38 93.92,-40.9 18.72,-20.7 22.91,-43.33 28.73,-70.82 11.38,-53.7 -38.69,-19.94 -66.48,-20.84zm5430.96 -169.66c-9.9,-43.69 49.14,-37.74 28.84,4.68 -14.86,4.21 -18.8,2.54 -28.84,-4.68zm-2776.12 -14.94c29.48,-12.2 49.39,17.69 22.76,31.23 -29.55,15.03 -56.42,-17.3 -22.76,-31.23zm2947.41 31.02c-8.98,-29.7 7.43,-37.97 30.47,-27.42 6.34,25.47 -4.64,36.01 -30.47,27.42zm-2794.97 30.27c7.51,-30.07 65.87,-37.32 101.63,-37.85 -9.07,18.18 -19.17,30.32 -39.19,40.08 -20.82,10.14 -47.26,12.68 -62.44,-2.23zm2365.68 -61.9c7.2,33.12 -37.11,195.41 -70.74,233.72 -5.62,6.41 -40.14,50.92 -54.58,36.97 -20.17,-19.46 52.78,-183.4 77.58,-222.98 16.33,-26.05 27.13,-52.93 47.74,-47.71zm-3047.71 45.48c-11.58,-32.69 14.8,-41.08 27.87,-27.63 13.04,13.42 2.65,36.67 -27.87,27.63zm-1923.86 7.59c25.13,-11.47 37.5,25.86 15.71,34.56 -25.51,10.19 -38.08,-24.35 -15.71,-34.56zm2124.25 54.8c-7.96,-35.35 26.21,-38.11 33.01,-18.87 7.28,20.57 -12.7,31.98 -33.01,18.87zm-1713.63 4.84c-9.11,-23.31 -3.92,-38.31 24.7,-31.69l6.93 6.83c4.93,25.29 -10.96,31.43 -31.63,24.86zm3492.14 -4.67c-5.26,18 -32.84,18.85 -70.49,56.66 -26.4,26.52 -80.36,38.29 -86.17,26.84 -13.8,-27.2 108.22,-106.29 156.66,-83.5zm1367.37 19.7c-14.7,2.9 -49.99,4.55 -55.63,-9.53 -3.4,-8.48 -0.7,-52.18 1.32,-62.43 26.55,-7.79 31.98,6.83 40.55,24.98 6.51,13.8 18.92,29.48 13.76,46.98zm-1892.75 3.13c-9.47,-37.71 22.67,-37.7 31.02,-24.12 14.27,23.2 -10.62,32.43 -31.02,24.12zm-23.11 101.58c-17.95,0.1 -24.82,-10.32 -35.63,-18.54 -19.11,-14.52 -32.76,-17.58 -35.65,-63.85 -1.16,-18.57 7.49,-21.87 20.11,-29.1 44.47,-25.52 35.82,6.28 53.41,30.43 11.86,16.27 8.59,13.9 5.34,38.18 -1.84,13.84 -3.45,31.44 -7.58,42.88zm742.78 -28.38c-13.07,-28.12 -26.42,-47.2 -2.41,-74.08 18.16,1.29 47.39,12.37 57.31,24.06 -1.88,7.83 -33.43,49.16 -54.9,50.02zm687.47 -68.81c44.68,-10.31 40.26,-9.56 33.21,36.85 -3.79,24.94 -12.71,47.41 -40.49,43.5 -9.52,-19.3 2.77,-61.84 7.28,-80.35zm-3370.82 -0.75c43.59,-17.47 61.23,48.21 24.12,60.2 -42.74,13.81 -62.64,-44.77 -24.12,-60.2zm4089.23 21.9c13.38,32.88 -14.97,42.03 -27.73,27.63 -12.15,-13.71 -2.52,-36.81 27.73,-27.63zm-3708.32 30.03c-29.19,11 -40.81,-13.11 -27.05,-27.21 13.82,-14.15 38.34,-3.15 27.05,27.21zm2884.48 -32.75c16.2,-4.02 38.24,-11.33 53.99,-7.48 1.74,19.27 -4.66,64.48 -8.48,84.9 -3.51,18.8 -6.77,16.22 -23.06,22.93 -11.2,4.61 -18.11,10.23 -29.07,6.35 -8.69,-13.83 1.72,-88.61 6.62,-106.7zm-1457.02 39.95c-10.71,-28.77 7.53,-36.57 30.2,-27.03 3.18,15.03 1.94,19.56 -4.95,29.55 -11.15,2.09 -17.35,0.83 -25.25,-2.52zm665.96 -11.23c10.34,-16.95 48.69,-34.44 74.11,-23.92 66.37,27.47 89.58,125.11 119.77,189.26 6.39,13.58 6.79,32.62 -15.16,19.14 -20.05,-12.31 -88.29,-104.44 -122.48,-136.99 -21.57,-20.53 -23.1,-19.13 -44.72,-33.27 -11.1,-7.26 -7.44,0.47 -11.52,-14.22zm1330.14 62.13c-1.56,-6.77 -4.21,-55.9 -2.39,-61.44 4.83,-14.77 37.66,-8.48 50.17,-2.45 2.35,15.34 -10.08,26.22 -18.22,38.37 -19.3,28.82 -14.17,27.26 -29.56,25.52zm-2975.89 45.7c16.56,-2.97 48.24,1.81 63.81,4.2 5.55,25.74 -26.52,139.48 -8.85,215 5.37,22.99 1.56,26.75 -11.59,40.38 -14.76,15.31 -13.26,12.59 -41.19,15.87 -37.63,4.42 -61.88,10.16 -102.92,10.16 -101.04,0 -40.51,75.86 -67.23,89.19l-22.77 5.34c-51.33,8.21 -77.52,9.6 -129.76,9.6 -110.07,0 -50.46,-28.66 -98.9,-79.59 -29.22,-30.72 -64.03,1.06 -126.81,-50.46 -18.66,-15.32 -31.63,-24.19 -24.14,-60.68 3.38,-16.5 4.58,-77.03 4.76,-77.43 2.17,-4.63 16.48,-15.57 22.29,-23.33 21.99,-29.36 31.9,-92.41 23.26,-106.37 -22.65,-36.57 -83.15,39.52 -105.29,48.11 -13.9,-5.78 -25.96,-15.49 -43.4,-23.2 -54.46,-24.07 -116.37,-25.85 -176.36,-26.09 -61.89,-0.26 -189.09,-6.62 -234.32,-34.48 -8.46,-5.21 -33.87,-25.43 -20.92,-38.85 7.52,-7.8 173.67,-16.73 188.18,-16.59 31.57,0.32 22.44,12.31 39.39,29.75 26.77,27.55 68.61,29.67 100.79,9.83 21.01,-12.96 15.95,-17.48 31.61,-35.42 21.31,-3.05 207.04,21.72 222.08,28.78 39.8,18.68 52.21,29.06 99.58,9.07 23.82,-10.05 80.03,9.38 93.07,21.25 -1.22,20.23 -47.38,55.32 -65.76,67.41 -40.19,1.97 -55.27,-5.77 -75.06,23.12 -36.91,53.87 26.45,115.44 79.45,83.01 25.32,-15.5 24.03,-31.38 26.99,-68.18 11.83,-13.59 26.43,-24.35 39.32,-35.67 12.51,-10.99 25.69,-29.6 42.72,-30.05 8.6,10.16 22.09,83.59 22.91,101.16 -9.23,14.75 -21.14,22.57 -22.38,46.19 -1.12,21.54 8.37,38.6 18.9,47.8 31.5,27.52 75.83,12.46 90.51,-15.9 9.64,-18.61 9.55,-37.44 1.21,-54.31 -11.58,-23.44 -17.24,-17.12 -33.99,-29.79 -12.48,-9.44 -26.62,-89.7 -23.45,-106.92 20.34,-3.86 54.88,12.78 75.19,19.29 47.59,15.26 19.78,20.68 48.15,47.76 19.24,18.35 50.71,20.51 72.42,4.69 32.22,-23.47 15.37,-36.39 28.5,-63.65zm-2500.19 -8.58c-5,-31.07 51.89,-54.92 86.29,-62.59 -6.78,34.65 -44.47,79.38 -86.29,62.59zm3774.5 -45.54c-11.56,-31.15 13.64,-40.86 27.07,-27.6 14,13.83 3.63,38.82 -27.07,27.6zm765.99 -21.81c0,-26.33 9.63,-20.19 33.48,-15.66 31.47,5.98 33.92,2.74 25.24,46.19 -19.38,6.33 -41.91,-6.24 -58.02,-13.67l-0.7 -16.86zm207.78 36.4c-20.74,-54.57 22.75,-47.18 34.02,-48.87 35.95,-5.36 55.75,-19.95 47.37,36.27 -21.83,10.39 -57.15,19.08 -81.39,12.6zm-3862.49 -44.84c42.21,-15.32 59.86,46.4 23.13,60.2 -41.33,15.53 -65.28,-44.9 -23.13,-60.2zm3769.18 42.54c-12.14,-12.71 -14.82,-57.9 40.97,-37.47 6.14,16.09 4.68,27.78 0.63,42.91 -14.41,4.12 -32.15,7.54 -41.6,-5.44zm-4648.85 272.98c123.6,-58.15 418.31,-140.22 560.5,-175.75 49.51,-12.36 98.04,-24.19 148.99,-35.9 139.1,-31.99 98.55,-30.24 140.14,-4.93 22.69,13.81 53.88,14.55 77.06,2.48 34.68,-18.05 28.64,-37.48 43.15,-48.7 10.37,-8.01 143.81,-27.07 160.29,-21.77 5.52,31.13 -15.92,84.92 -0.32,142.07 13.87,50.85 9.21,36.4 -51.56,41.15 -19.44,1.52 -35.24,4.09 -53.29,5.74 -35.28,3.22 -81.45,-6.96 -105.75,12.19 -26.58,20.96 -15.5,63.02 2.55,88.84 11.36,16.24 51.56,58.56 50,66.76 -16.02,25.8 -119.29,81.21 -161.79,97.02 -63.95,23.78 -148.48,40.21 -199.04,-11.95 -1.71,-20.92 -0.74,-34.34 -5.68,-55.18 -2.78,-11.73 -14.22,-36.94 -14.61,-41.45 -0.97,-11.45 25.11,-40.17 18.25,-93.49 -6.72,-52.31 -28.53,-72.24 -53.17,-38.28 -13.98,19.27 -30.81,50.72 -45.4,67.59 -21.42,-0.75 -42.91,-9.42 -69.87,-10.06 -115.7,-2.76 -330.41,105.06 -407.16,60.43 -15.21,-8.84 -31.87,-25.1 -33.29,-46.81zm356.54 -245.52c-29.51,9.62 -42.98,-13.14 -28.49,-28.69 14.1,-15.13 40.71,-3.92 28.49,28.69zm-491.58 -18.05c7.65,32.96 -33.66,42.27 -43.39,25.41 -10.11,-17.53 14.66,-40.98 43.39,-25.41zm3186.41 -17.13c42.46,-17.59 63.76,47.93 24.07,60.23 -41.98,13.02 -62.08,-44.5 -24.07,-60.23zm-2506.52 53.23c-9.07,-24.81 5.23,-48.14 26.92,-30.55 8.02,6.51 8,20.06 1.61,27.21 -8.37,9.36 -18.48,5.39 -28.53,3.34zm2373.07 12.15c57.73,0 65.35,-11.47 81.76,10.84 33.66,45.78 92.64,40.29 122.08,9.08 22.6,-23.96 4.48,-35.6 46.22,-42.59 48.65,-8.15 95.6,-19.9 141.47,-35.52l125.97 -52.49c28.95,24.68 3.22,36.42 70.93,37.45 15.71,0.24 57.02,31.1 61.61,45.27 -8.48,13.34 -29.37,17.96 -44.34,24.3 -32.1,13.59 -21.83,0.22 -49.71,-2.63 -39.69,-4.06 -70.43,33.12 -52.08,73.75 14.32,31.67 62.63,41.49 87.14,9.97 15.44,-19.85 1.86,-24.73 30.67,-36.66 15.26,-6.33 34.29,-17.2 52.28,-16.25 3.46,14.71 0.02,27.19 -2.12,44.85 -3.05,25.32 0.39,24.44 -16.45,37.06 -37.05,27.76 -14.82,45.64 -13.06,78.28 -20.22,20.07 -164.03,66.38 -202.85,60.61 -22.58,-35.56 10.33,-43.68 23.64,-72.4 10.01,-21.6 22.15,-70.15 8.62,-90.64 -22.72,-37.23 -77.27,36.96 -99.6,50.74 -19.12,-3.8 -47.04,-23.1 -77.33,-30.65 -98.87,-24.63 -265.12,10.73 -365.41,-24.59 -21.79,-7.67 -38.35,-22.74 -46.32,-38.66 -25.85,-51.67 21.41,-39.12 116.88,-39.12zm764.25 -13.78c7.73,-10.9 41.14,-24.92 55.78,-28.12 15.38,-3.38 18.1,3.23 31.74,6.14 14.79,3.17 22.38,-1.05 37.84,1.05 15.3,31.25 -21.05,64.68 -45.79,66.36 -30.23,2.04 -30.12,-1.22 -48.49,-14.93 -10.58,-7.88 -26.35,-15.35 -31.08,-30.5zm1330.43 -11.76c39.09,-14.22 2.26,39.67 -34.97,65.31 -19.06,13.13 -67.92,37.65 -97.64,41.56 -33.12,4.36 -11.9,-21.69 -4.69,-33.93 15.16,-25.76 7.65,-20.98 38.55,-32.52 35.1,-13.1 65.12,-28.18 98.75,-40.42zm472.58 37.28c-35.61,8.26 -37.33,-21.94 -23.67,-30.91 19.87,-13.04 35.39,7.6 23.67,30.91zm-231.86 -44.85c58,-18.77 106.87,30.22 102.5,86.41 -8.04,103.3 -189.93,210.99 -275.82,209.94 -15.15,-0.18 -30.32,-10.9 -18.37,-25.16 5.55,-6.63 25.56,-9.7 34.45,-12.2 75.78,-21.36 210.14,-109.58 215.23,-176.02 2.35,-30.77 -25.8,-53.72 -52.41,-37.47 -24.78,15.14 -15.18,54.49 -32.59,64.06 -35.16,19.32 -47.4,-85.48 27.01,-109.56zm-2831.79 51.23c-7.03,-12.96 -8.01,-18.68 0,-31.57 12.79,-2.91 16.85,-2.24 26.66,1.37 7.46,23.01 2.44,36.38 -26.66,30.2zm3234.01 -25.9c13.2,33.1 -15.34,41.27 -27.72,27.56 -12.41,-13.76 -2.99,-37.22 27.72,-27.56zm-708.35 131.09c-33.05,13.44 -65.24,29.91 -99.89,41.75 -85.49,29.2 -161.28,46.31 -256.36,46.31 -90.01,0 -169.63,-28.15 -240.26,-63.12 -39.82,-19.73 -164.35,-93.62 -163.98,-134.07 0.39,-41.61 58.19,20.97 82.02,39 225.63,170.66 415.27,135.27 662.65,42.58 18.82,-7.06 80.48,-35.3 97.62,-30.58 1.62,22.29 -14.12,25.86 -33.15,35.7 -15.54,8.03 -30.6,15.09 -48.65,22.43zm-415.66 -6.71c45.03,34.89 -32.46,25.11 -52.94,14.05 -35.34,-19.1 -122.65,-104.53 -99.59,-126.21 24.23,-22.78 124.17,90.19 152.53,112.16zm-1072.27 -89.8c23.41,-11.79 36.04,23.22 16.81,32.54 -23.1,11.18 -37.9,-21.92 -16.81,-32.54zm1316.66 29.74c39.17,-9.9 30.56,12.26 9.6,28.61 -120.35,93.85 -233.07,-0.3 -228.93,-16.87 3.71,-14.82 49.99,-1.2 66.11,-0.16 48.5,3.13 108.96,-0.4 153.22,-11.58zm-2717.45 34.05c-9.07,-25.3 1.89,-36.93 26.87,-29.99 11.45,22.49 2.02,38.81 -26.87,29.99zm1693.88 -22.36c20.25,-11.56 33.78,16.57 20.13,28.46 -13.17,11.47 -35.3,1.48 -29.99,-17.84 3.51,-12.73 2.33,-6.32 9.86,-10.62zm-43.98 24.33c-6.87,10.32 -19.02,17.67 -30.28,26.49 -17.13,13.43 -19.42,16.5 -34.11,-1.08 -17.92,-21.45 -3.58,-75.97 0.89,-85.08 17.06,-0.31 27.59,13.07 40.41,22.51 14.92,10.99 24.72,10.73 23.09,37.16zm1600.13 154.38c-2.41,-22.43 30.08,-38.2 56.6,-78.38 10.76,-16.3 16.62,-25.26 26.17,-44.77 10.66,-21.79 11.67,-38.32 25.54,-42.08 34.92,50.39 -67.89,177.95 -108.31,165.23zm-3047.89 -89.33c-10.18,-24.68 4.13,-43.48 23.84,-30.86 13.99,8.96 12.4,40.29 -23.84,30.86zm1326.74 6.32c-11.74,-29.74 13.76,-41.14 27.25,-27.3 14.66,15.04 1.38,38 -27.25,27.3zm-1738.74 40.88c5.58,10.86 11.36,20.68 16.4,29.69l69.04 115.29c22.85,38.35 37.76,35.2 33.29,57.41 -53.49,0.99 -164.5,-175.09 -146.14,-227.33 20.1,0.61 18.69,7.97 27.41,24.94zm-648.55 18.89c19.81,-16.43 30.61,5.84 53.13,-2.16 19.35,-6.87 16.43,-22.34 46.74,-25.2 -1.08,67.91 -97.95,62.16 -99.87,27.36zm3655.87 84.89c0,0 0,0 0,0l0 0zm-749.61 90.37c1.85,-7.84 2.26,-5.55 6.77,-11.24 16.33,-20.6 34.01,-40.94 25.93,-77.57 -13.11,-59.41 -60.91,-35.83 -84.34,-54.55 4.2,-31.89 45.66,-25.16 72.62,-14.7 92.55,35.88 37.97,189.63 -19.51,171.91 -0.01,-0.03 -4.21,-2.21 -1.47,-13.85zm346.38 -28.28c97.76,0 76.25,-93.6 35.81,-75.8 -15.94,7.02 -17.25,21.99 -42.14,16.38 -31.21,-41.56 78.07,-105.59 114.96,-18.78 29.39,69.15 -36.88,123.31 -108.63,123.31 -132.58,0 -216.46,-151.71 -177.23,-183.49 16.81,4.24 43.23,55.62 69.9,88.1 25.82,31.45 45.07,50.28 107.33,50.28zm-1140.7 1.29c12.54,19.87 24.75,38.22 37.65,58.22 25.52,39.6 36.74,33.4 35.55,55.21 -34.74,6.42 -84.86,-63.3 -102.22,-88.1 -16.84,-24.08 -64.02,-101.19 -49.76,-134.5 19.75,-0.53 16.3,4.24 26.51,23.25l52.27 85.92zm-3598.25 -102.78c39.12,-20.76 65.69,40.63 28.67,57.78 -39.71,18.39 -68.58,-36.6 -28.67,-57.78zm4593.71 177.82c-6.06,9.49 -42.63,33.13 -55.03,44.29 -48.98,44.05 -101.09,109.1 -170.38,123.79 -85.96,18.23 -185.4,-111.97 -142.43,-230.67 42.27,-116.75 181.82,-118.59 146.57,-45.04 -14.26,29.76 -47.08,16.01 -67.85,27.97 -42.6,24.54 36.29,86.83 87.03,84.17 75.66,-3.97 98.97,-65.26 114.38,-80.84 18.24,1.64 34.94,23.6 46.65,35.76 25.1,26.05 36.65,22.84 41.06,40.57zm-1594.19 -124.28c10.8,39.72 -63.13,67.72 -93.6,39.39 -29.9,-27.79 36.92,-13.51 45.22,-15.61 8.97,-2.28 16.25,-11.03 22.69,-16.43 24.12,-20.19 25.3,-7.55 25.69,-7.35zm2430.41 14.09c84.18,-28.9 49.35,2.96 88.83,39.27 30.16,27.73 115.89,30.13 70.58,-28.2 -29.41,-37.86 38.37,-61.27 80.29,-34.02 55.37,35.98 3.26,157.55 -118.28,146.69 -53.73,-4.81 -79.25,-12.11 -125.66,-30.23 -19.09,-7.46 -98.87,-35.07 -106.63,-47.12 4.61,-12.65 8.85,-11.91 22.94,-17.06 8.8,-3.21 19.66,-6.71 29.43,-9.83 19.98,-6.37 39.23,-12.89 58.5,-19.5zm341.69 130.38c-1.07,-14.67 45.42,-85.36 66.89,-100.91 39.7,-28.75 92.9,-36.18 122.13,3.93 44.42,60.97 -5.01,102.16 -41.59,69.97 -23.73,-20.88 -2.28,-58.02 -35.61,-43.58 -25.63,11.11 -20.82,30.76 -26.7,58.81 -14.47,7.84 -68.96,17.3 -85.12,11.78zm-578.97 15.2c-18.43,-8.88 -7.82,-23.79 -29.84,-44.54 -36.18,-34.09 -75.78,-18.96 -109.54,-12.06 -34.96,7.14 -28.62,-14.5 -11.33,-26.74 91.33,-64.63 187.42,34.26 150.71,83.34zm-4389.25 -79.39c27.25,0.31 157.7,104.94 202.68,122.52 16.02,6.26 23.44,2.75 26.18,20.72 -40.06,26.07 -159.84,-56.51 -195.02,-85.94 -24.03,-20.1 -37.08,-34.52 -33.84,-57.3zm4786.64 107.8c5.34,-14.44 28.42,-17.19 42.85,-24.1 73.74,-35.29 75.52,-93.05 102.07,-93.09 39.88,51.79 -114.78,161.54 -144.92,117.19zm-346.55 41.54c-0.71,-0.12 -2.31,0.18 -2.82,-0.91 -0.5,-1.09 -1.9,-0.57 -2.76,-1.05 -8.11,-17.05 28.24,-41.25 11.46,-86.15 -5.73,-15.34 -15.82,-29.59 10.51,-30.97 25.96,-1.36 100.56,31.41 120.46,42.35 22.93,12.6 60.85,28.92 62.44,44.97 -15.53,13.09 -74.91,16.17 -99.97,19.73 -17.47,2.49 -83.38,14.72 -99.32,12.03zm-419 -73.11c15.15,-5.71 93.1,-20.67 106.59,-14.51 -2.68,14.34 -7.32,16.54 -18.67,24.69 -27.62,19.82 -47.41,48.49 -66.99,48.95 -5.74,-9.3 -21.63,-47.46 -20.93,-59.13zm1127.35 17.31c-8.94,9.5 -66.95,8.99 -62.79,-33.85 14.92,-4.16 22.58,5.73 38.86,11.18 12.22,4.08 39.47,6.15 23.93,22.67zm-904.52 81.77c-16.49,7.86 -76.37,10.94 -99.32,13.52 -97.96,11.03 -42.38,-23.24 -3.41,-56.2 32.55,-27.54 114.59,-112.76 182.42,-76.11 20.11,10.87 42.49,41.13 19.92,69.37 -31.1,38.9 -70.25,-8.17 -73.28,-9.46 -17.97,-7.67 -33.55,3.59 -33.8,19.67 -0.32,21.02 16.38,21.27 7.47,39.21zm-564.82 43.97c2.43,-30.07 24.63,-37.36 44.06,-54.49 45.01,-39.67 102.22,-106.5 183.39,-91.77 66.97,12.16 77.09,90.08 46.8,105.93 -34.13,17.85 -32.17,-24.61 -57.44,-26.8 -41.77,-3.63 -16.64,50.15 -17.34,58.28 -19.16,8.43 -73.01,7.64 -98.92,9.26 -34.97,2.2 -71.53,11.34 -100.55,-0.41zm-4202.06 -65.57c14.19,58.97 -58.49,76.47 -81.71,63.16 -35.75,-20.49 32.78,-21.97 39.81,-26.34 20.19,-12.55 15.96,-37.09 41.9,-36.82zm1055.94 39.16c21.47,-2.24 23.14,14.5 33.62,30.03 9.72,14.41 18.27,25.57 21.28,45.92 -21.85,-2.85 -29.22,-16.56 -39.46,-27.92 -12.68,-14.06 -19.91,-24.52 -15.44,-48.03zm-882.2 -1497.92c-24.31,-20.18 -48.61,-40.36 -72.91,-60.55 3.8,-30.93 7.6,-61.85 11.4,-92.78 0.79,-6.38 -6.31,-10.79 -11.9,-7.43 -27.18,16.32 -54.35,32.65 -81.53,48.98 -28.96,-13.09 -57.91,-26.17 -86.87,-39.26 -5.97,-2.69 -12.47,2.51 -10.93,8.75 7.51,30.28 15.02,60.55 22.53,90.82 -21.69,22.84 -43.39,45.68 -65.09,68.52 -4.49,4.73 -1.38,12.36 5.16,12.85 31.81,2.38 63.63,4.76 95.44,7.15 15.55,27.2 31.1,54.4 46.65,81.6 3.19,5.59 11.59,5.13 14.1,-0.82 12.16,-28.8 24.31,-57.6 36.47,-86.4 31.3,-6.03 62.61,-12.05 93.92,-18.08 6.38,-1.23 8.62,-9.15 3.56,-13.35zm389.61 -224.87c4.65,-31.25 9.31,-62.5 13.96,-93.75 28.41,-12.79 56.82,-25.58 85.23,-38.38 5.87,-2.63 5.96,-10.99 0.19,-14.03 -28.06,-14.76 -56.11,-29.53 -84.17,-44.29 -3.83,-31.55 -7.66,-63.09 -11.49,-94.64 -0.79,-6.5 -8.61,-9.36 -13.15,-4.8 -21.99,22.13 -43.98,44.25 -65.97,66.37 -30.78,-6.7 -61.56,-13.4 -92.34,-20.11 -6.37,-1.39 -11.28,5.23 -8.31,11.07 14.47,28.44 28.93,56.87 43.4,85.31 -15.19,27.4 -30.38,54.8 -45.58,82.21 -3.12,5.62 1.63,12.57 8.02,11.63 30.93,-4.54 61.85,-9.09 92.78,-13.64 21.39,23.64 42.79,47.28 64.18,70.92 4.36,4.82 12.29,2.62 13.25,-3.87zm1170.11 84.83c-4.1,-31.33 -8.19,-62.65 -12.29,-93.98 23.81,-20.09 47.62,-40.19 71.44,-60.28 4.92,-4.15 2.71,-12.21 -3.68,-13.55 -31.02,-6.5 -62.05,-13 -93.08,-19.5 -12.34,-29.29 -24.67,-58.58 -37.01,-87.86 -2.55,-6.03 -10.85,-6.64 -13.96,-1.01 -15.08,27.31 -30.16,54.61 -45.23,81.92 -31.44,2 -62.88,3.99 -94.32,5.99 -6.51,0.41 -9.41,8.12 -4.95,12.92 21.71,23.38 43.42,46.76 65.13,70.14 -7.1,30.52 -14.19,61.03 -21.28,91.55 -1.46,6.27 5.01,11.65 10.89,8.99 28.5,-12.85 57,-25.71 85.49,-38.56 27.06,16.86 54.11,33.73 81.17,50.59 5.51,3.44 12.54,-0.85 11.68,-7.36zm1310.23 -298.7c8.63,-30.39 17.25,-60.78 25.87,-91.17 29.82,-9.04 59.64,-18.08 89.46,-27.12 6.16,-1.87 7.32,-10.14 1.98,-13.9 -25.92,-18.24 -51.85,-36.48 -77.78,-54.73 0.25,-31.77 0.5,-63.55 0.75,-95.33 0.05,-6.54 -7.34,-10.38 -12.42,-6.44 -24.65,19.11 -49.3,38.23 -73.94,57.35 -29.67,-10.6 -59.34,-21.2 -89,-31.8 -6.14,-2.19 -11.86,3.74 -9.66,9.91 10.7,30.06 21.39,60.12 32.09,90.18 -18.59,25.22 -37.17,50.45 -55.75,75.67 -3.82,5.18 0,12.69 6.45,12.57 31.26,-0.54 62.51,-1.07 93.77,-1.61 18.18,26.19 36.36,52.38 54.54,78.57 3.71,5.33 11.86,4.17 13.64,-2.15zm1170.39 101.6c-17.78,26.11 -35.56,52.22 -53.34,78.34 -31.15,-0.85 -62.3,-1.69 -93.45,-2.53 -6.43,-0.18 -10.15,7.3 -6.27,12.55 18.84,25.5 37.68,51 56.51,76.5 -10.27,30.07 -20.55,60.14 -30.82,90.21 -2.12,6.2 3.68,12.18 9.75,10.04 29.42,-10.35 58.85,-20.7 88.27,-31.06 24.8,19.43 49.6,38.86 74.4,58.28 5.13,4.03 12.43,0.2 12.29,-6.35 -0.65,-31.89 -1.3,-63.79 -1.95,-95.69 25.59,-18.06 51.19,-36.13 76.79,-54.19 5.26,-3.71 4.01,-12.03 -2.15,-13.96 -29.82,-9.37 -59.65,-18.73 -89.48,-28.09 -8.97,-30.59 -17.95,-61.18 -26.93,-91.78 -1.83,-6.23 -9.93,-7.71 -13.62,-2.27zm1221.69 -160.53c-13.3,-28.65 -26.6,-57.31 -39.91,-85.96 16.7,-26.32 33.39,-52.63 50.08,-78.94 3.45,-5.43 -1.07,-12.45 -7.56,-11.82 -31.55,3.1 -63.1,6.2 -94.65,9.3 -20.55,-24.24 -41.1,-48.48 -61.65,-72.72 -4.24,-4.99 -12.34,-3.08 -13.63,3.23 -6.19,30.57 -12.39,61.14 -18.58,91.71 -29.4,11.33 -58.79,22.66 -88.19,33.99 -6.08,2.35 -6.54,10.57 -0.85,13.81 27.72,15.8 55.44,31.59 83.17,47.39 2.38,31.24 4.76,62.48 7.15,93.71 0.48,6.42 8.27,9.61 13.09,5.32 23.32,-20.81 46.66,-41.62 69.99,-62.42 30.87,7.97 61.73,15.95 92.6,23.93 6.29,1.62 11.71,-4.58 8.94,-10.53zm-4140.12 355.75c-20.34,-47.54 -40.68,-95.07 -61.02,-142.6 28.62,-42.21 57.23,-84.42 85.84,-126.63 5.91,-8.71 -1.13,-20.43 -11.79,-19.71 -51.76,3.5 -103.53,7.01 -155.29,10.51 -32.41,-40.67 -64.82,-81.34 -97.23,-122.01 -6.68,-8.37 -20.04,-5.65 -22.44,4.6 -11.66,49.7 -23.31,99.4 -34.96,149.09 -48.64,17.08 -97.29,34.16 -145.93,51.23 -10.07,3.54 -11.23,16.97 -2.08,22.55 44.56,27.21 89.12,54.43 133.68,81.64 2.35,51.22 4.7,102.44 7.05,153.65 0.48,10.53 13.06,16.13 21.15,9.34 39.19,-32.88 78.39,-65.75 117.59,-98.63 50.09,14.58 100.19,29.16 150.28,43.74 10.21,2.98 19.38,-6.9 15.15,-16.77zm-1481.8 -120.62c44.53,-26.27 89.06,-52.53 133.59,-78.8 45.53,22.96 91.06,45.92 136.59,68.89 9.4,4.74 20.12,-3.75 18.04,-14.22 -10.12,-50.89 -20.23,-101.78 -30.34,-152.66 36.17,-37.36 72.35,-74.72 108.53,-112.08 7.44,-7.7 3.03,-20.59 -7.44,-21.67 -50.79,-5.18 -101.57,-10.36 -152.35,-15.54 -23.17,-46.06 -46.34,-92.11 -69.52,-138.16 -4.79,-9.53 -18.27,-8.96 -22.63,0.83 -21.27,47.68 -42.54,95.37 -63.81,143.05 -50.5,8.9 -100.99,17.8 -151.49,26.7 -10.37,1.82 -14.32,15.02 -6.55,22.17 37.64,34.65 75.27,69.31 112.9,103.96 -8.03,51.55 -16.07,103.11 -24.11,154.66 -1.63,10.51 9.33,18.33 18.59,12.87zm2595.98 22.15c18.15,-48.41 36.29,-96.83 54.44,-145.24 49.85,-10.74 99.7,-21.47 149.55,-32.21 10.29,-2.21 13.3,-15.56 5.1,-22.39 -39.84,-33.24 -79.68,-66.48 -119.51,-99.72 4.67,-51.79 9.35,-103.58 14.02,-155.38 0.96,-10.67 -10.57,-17.93 -19.4,-12.18 -42.76,27.87 -85.53,55.74 -128.29,83.61 -46.96,-21.27 -93.92,-42.54 -140.89,-63.81 -9.71,-4.41 -19.84,4.5 -17.08,14.86 13.4,50.46 26.81,100.93 40.22,151.39 -33.7,38.64 -67.39,77.29 -101.09,115.93 -6.93,7.94 -1.7,20.69 8.83,21.37 51.06,3.32 102.11,6.64 153.16,9.96 26.13,45.16 52.27,90.31 78.4,135.47 5.33,9.21 18.78,8.41 22.54,-1.66zm718.93 278.74c43.17,-28.45 86.34,-56.89 129.51,-85.34 46.62,20.67 93.23,41.34 139.85,62.01 9.62,4.27 19.9,-4.74 17.3,-15.1 -12.63,-50.32 -25.26,-100.64 -37.89,-150.96 34.27,-39.11 68.55,-78.23 102.82,-117.34 7.05,-8.06 2,-20.72 -8.51,-21.27 -50.98,-2.65 -101.95,-5.3 -152.93,-7.95 -25.43,-44.84 -50.87,-89.68 -76.31,-134.53 -5.26,-9.28 -18.69,-8.04 -22.56,1.96 -18.87,48.68 -37.74,97.36 -56.62,146.04 -49.99,11.4 -99.98,22.8 -149.97,34.2 -10.27,2.34 -13.55,15.71 -5.44,22.47 39.32,32.74 78.62,65.48 117.93,98.22 -5.46,51.89 -10.92,103.78 -16.38,155.66 -1.12,10.58 10.23,17.85 19.2,11.93zm506.57 -452.26c51.53,4.21 103.06,8.42 154.59,12.63 23.97,45.01 47.94,90.01 71.9,135.03 4.95,9.29 18.6,8.53 22.93,-1.23 21.07,-47.41 42.14,-94.82 63.21,-142.23 51.1,-9.67 102.2,-19.34 153.29,-29.02 10.53,-2 14.36,-15.07 6.42,-21.99 -38.51,-33.51 -77.02,-67.02 -115.53,-100.52 7.61,-50.99 15.22,-101.98 22.84,-152.97 1.57,-10.55 -9.77,-17.85 -18.98,-12.37 -44.86,26.7 -89.73,53.4 -134.6,80.1 -46.39,-21.83 -92.78,-43.67 -139.17,-65.51 -9.53,-4.49 -20.36,4.02 -18.13,14.35 10.77,50.01 21.54,100.02 32.32,150.03 -36.29,37.49 -72.57,74.99 -108.85,112.48 -7.4,7.64 -2.95,20.36 7.76,21.22zm915.07 268.87c42.02,-30.11 84.04,-60.23 126.07,-90.35 47.39,18.83 94.78,37.66 142.17,56.49 9.78,3.89 19.7,-5.52 16.7,-15.77 -14.59,-49.79 -29.19,-99.57 -43.78,-149.36 32.71,-40.43 65.43,-80.85 98.14,-121.28 6.74,-8.33 1.2,-20.78 -9.33,-20.92 -51.04,-0.65 -102.09,-1.3 -153.13,-1.95 -27.17,-43.81 -54.34,-87.62 -81.51,-131.44 -5.63,-9.06 -19,-7.3 -22.47,2.84 -16.95,49.39 -33.91,98.77 -50.86,148.15 -49.5,13.35 -99.01,26.7 -148.51,40.05 -10.17,2.74 -12.93,16.23 -4.55,22.67 40.56,31.17 81.12,62.35 121.68,93.52 -3.42,52.06 -6.85,104.13 -10.27,156.19 -0.7,10.61 10.92,17.43 19.65,11.16zm-3005.57 -364.19c9.86,-15.34 19.72,-30.67 29.58,-46 17.98,0.01 35.96,0.02 53.95,0.04 3.71,0 5.74,-4.37 3.42,-7.34 -11.25,-14.42 -22.5,-28.85 -33.76,-43.27 5.47,-17.5 10.94,-35.01 16.41,-52.51 1.13,-3.6 -2.31,-6.97 -5.78,-5.64 -16.81,6.42 -33.63,12.84 -50.44,19.26 -14.6,-10.84 -29.2,-21.66 -43.8,-32.49 -3.03,-2.25 -7.18,0.07 -7,3.84 0.86,18.4 1.72,36.79 2.58,55.18 -14.49,10.81 -28.98,21.62 -43.48,32.42 -2.98,2.22 -2.12,7.01 1.46,8.03 17.34,4.94 34.69,9.89 52.04,14.84 5.64,17.51 11.29,35.02 16.93,52.53 1.15,3.57 5.84,4.3 7.89,1.11zm-1181.83 523.19c17.39,-5.49 34.77,-10.98 52.15,-16.48 13.83,11.5 27.65,23 41.47,34.5 2.85,2.38 7.21,0.31 7.33,-3.45 0.56,-18.29 1.12,-36.57 1.68,-54.86 15.39,-9.97 30.78,-19.93 46.17,-29.9 3.17,-2.06 2.68,-6.83 -0.83,-8.03 -17.04,-5.81 -34.08,-11.62 -51.11,-17.43 -4.31,-17.66 -8.62,-35.32 -12.93,-52.98 -0.89,-3.65 -5.57,-4.53 -7.84,-1.51 -11.09,14.7 -22.19,29.39 -33.27,44.09 -18.06,-0.95 -36.11,-1.89 -54.17,-2.84 -3.71,-0.2 -6.11,4.02 -4.01,7.1 10.18,14.89 20.37,29.78 30.55,44.67 -6.85,17.08 -13.7,34.15 -20.55,51.23 -1.4,3.48 1.75,7.04 5.36,5.89zm1724.84 -71.8c9.64,-15.47 19.28,-30.95 28.91,-46.42 17.98,-0.25 35.96,-0.5 53.94,-0.75 3.71,-0.05 5.68,-4.45 3.32,-7.39 -11.46,-14.26 -22.92,-28.51 -34.39,-42.77 5.22,-17.58 10.43,-35.16 15.65,-52.74 1.07,-3.62 -2.41,-6.94 -5.86,-5.56 -16.72,6.66 -33.44,13.32 -50.16,19.99 -14.76,-10.62 -29.52,-21.23 -44.27,-31.85 -3.06,-2.2 -7.18,0.18 -6.94,3.95 1.13,18.38 2.25,36.75 3.38,55.13 -14.33,11.02 -28.66,22.04 -43,33.06 -2.94,2.26 -2.02,7.03 1.57,8 17.42,4.69 34.84,9.39 52.25,14.08 5.9,17.43 11.8,34.85 17.7,52.28 1.2,3.55 5.9,4.21 7.9,0.99zm504.34 -36.66c16.98,-6.64 33.96,-13.28 50.93,-19.92 14.56,10.55 29.12,21.1 43.68,31.66 3,2.17 7.21,-0.18 7.08,-3.94 -0.66,-18.29 -1.32,-36.57 -1.99,-54.85 14.7,-10.97 29.39,-21.94 44.08,-32.92 3.03,-2.26 2.22,-6.99 -1.37,-7.96 -17.39,-4.65 -34.77,-9.31 -52.16,-13.97 -5.47,-17.33 -10.95,-34.67 -16.43,-52 -1.14,-3.59 -5.86,-4.15 -7.93,-0.98 -10.08,15.4 -20.17,30.8 -30.25,46.21 -18.08,0.26 -36.16,0.52 -54.23,0.78 -3.72,0.05 -5.83,4.42 -3.53,7.35 11.15,14.18 22.3,28.36 33.46,42.53 -5.7,17.5 -11.39,34.99 -17.08,52.48 -1.17,3.57 2.21,6.91 5.74,5.53zm1119.13 105.22c10.49,-14.91 20.98,-29.82 31.47,-44.73 17.97,0.76 35.93,1.52 53.9,2.29 3.7,0.15 5.91,-4.13 3.72,-7.19 -10.64,-14.88 -21.28,-29.76 -31.93,-44.64 6.2,-17.26 12.39,-34.52 18.59,-51.78 1.27,-3.56 -2.02,-7.06 -5.54,-5.88 -17.07,5.71 -34.14,11.43 -51.21,17.14 -14.13,-11.43 -28.27,-22.86 -42.41,-34.28 -2.92,-2.37 -7.17,-0.23 -7.15,3.55 0.1,18.41 0.19,36.82 0.29,55.23 -14.93,10.2 -29.87,20.4 -44.8,30.59 -3.06,2.09 -2.41,6.91 1.12,8.08 17.13,5.66 34.26,11.33 51.38,16.99 4.91,17.73 9.82,35.46 14.73,53.19 1,3.62 5.66,4.54 7.84,1.44zm-329.18 -567c17.51,-5.09 35.01,-10.17 52.52,-15.25 13.55,11.82 27.1,23.65 40.64,35.47 2.8,2.44 7.2,0.47 7.41,-3.29 0.99,-18.26 1.98,-36.53 2.97,-54.8 15.62,-9.6 31.25,-19.2 46.87,-28.8 3.21,-1.98 2.83,-6.77 -0.65,-8.06 -16.9,-6.2 -33.79,-12.41 -50.69,-18.62 -3.89,-17.76 -7.78,-35.51 -11.68,-53.27 -0.8,-3.67 -5.45,-4.65 -7.8,-1.69 -11.43,14.43 -22.87,28.86 -34.3,43.29 -18.03,-1.37 -36.05,-2.74 -54.08,-4.11 -3.7,-0.29 -6.2,3.88 -4.18,7 9.83,15.13 19.66,30.26 29.49,45.38 -7.25,16.91 -14.5,33.82 -21.74,50.73 -1.48,3.44 1.58,7.08 5.22,6.02zm882.36 9.34c7.63,-16.55 15.27,-33.11 22.9,-49.66 17.81,-2.49 35.62,-4.98 53.42,-7.47 3.68,-0.51 5.08,-5.12 2.37,-7.74 -13.15,-12.72 -26.3,-25.44 -39.45,-38.15 2.99,-18.1 5.97,-36.19 8.95,-54.28 0.62,-3.73 -3.25,-6.58 -6.5,-4.79 -15.77,8.69 -31.52,17.39 -47.28,26.09 -15.97,-8.7 -31.93,-17.39 -47.9,-26.09 -3.3,-1.79 -7.09,1.08 -6.39,4.79 3.41,18.09 6.82,36.18 10.23,54.28 -12.85,12.72 -25.7,25.44 -38.54,38.16 -2.64,2.61 -1.14,7.23 2.55,7.74 17.87,2.49 35.74,4.97 53.6,7.46 8.03,16.55 16.05,33.11 24.07,49.66 1.64,3.38 6.39,3.44 7.97,0zm757.32 257.71c14.3,-11.3 28.6,-22.6 42.91,-33.91 17,5.85 34,11.7 51.01,17.55 3.51,1.21 6.85,-2.27 5.62,-5.83 -5.96,-17.29 -11.93,-34.59 -17.89,-51.88 10.86,-14.78 21.71,-29.56 32.57,-44.34 2.23,-3.04 0.08,-7.34 -3.63,-7.21 -17.99,0.61 -35.98,1.22 -53.97,1.84 -10.29,-14.99 -20.59,-29.97 -30.88,-44.95 -2.14,-3.11 -6.81,-2.26 -7.87,1.37 -5.16,17.67 -10.31,35.34 -15.47,53.02 -17.21,5.52 -34.43,11.04 -51.65,16.56 -3.53,1.13 -4.28,5.93 -1.23,8.05 14.8,10.32 29.61,20.63 44.41,30.94 -0.35,18.39 -0.69,36.79 -1.04,55.18 -0.07,3.75 4.13,5.96 7.11,3.61zm-251.57 -359.29c18.15,1.61 36.31,3.21 54.47,4.82 8.35,15.93 16.69,31.86 25.03,47.79 1.72,3.28 6.54,3.05 8.09,-0.38 7.54,-16.67 15.09,-33.34 22.63,-50 18.04,-3.29 36.08,-6.58 54.12,-9.86 3.72,-0.68 5.1,-5.29 2.31,-7.74 -13.49,-11.91 -26.99,-23.82 -40.49,-35.73 2.81,-17.96 5.61,-35.92 8.42,-53.88 0.58,-3.72 -3.4,-6.32 -6.66,-4.41 -15.89,9.31 -31.77,18.62 -47.66,27.93 -16.3,-7.81 -32.61,-15.63 -48.91,-23.44 -3.35,-1.6 -7.19,1.37 -6.43,5.02 3.68,17.66 7.36,35.32 11.04,52.98 -12.89,13.13 -25.77,26.26 -38.65,39.4 -2.63,2.67 -1.09,7.17 2.69,7.5zm-5044.74 959.35c14.68,-10.81 29.36,-21.62 44.04,-32.43 16.79,6.42 33.59,12.84 50.38,19.27 3.47,1.32 6.92,-2.04 5.82,-5.64 -5.38,-17.49 -10.75,-34.98 -16.12,-52.46 11.35,-14.4 22.7,-28.81 34.05,-43.21 2.33,-2.97 0.32,-7.33 -3.39,-7.33 -18,0 -36,0 -54,0.01 -9.78,-15.33 -19.56,-30.65 -29.34,-45.97 -2.02,-3.17 -6.73,-2.49 -7.91,1.1 -5.75,17.49 -11.5,34.98 -17.25,52.47 -17.4,4.93 -34.79,9.87 -52.18,14.8 -3.58,1.01 -4.49,5.78 -1.5,8.01 14.44,10.81 28.88,21.61 43.33,32.42 -0.97,18.37 -1.94,36.74 -2.91,55.11 -0.2,3.75 3.93,6.1 6.98,3.85zm4233.88 1205.95c18.96,-0.77 35.86,19.78 56.57,30.08 21.07,10.47 50.72,9.99 55.07,29.04 -20.14,28.44 -127.99,-12.16 -111.64,-59.12zm-3205.67 -1988.54c17.24,-5.92 34.49,-11.83 51.73,-17.75 14.1,11.16 28.2,22.32 42.3,33.48 2.91,2.31 7.21,0.13 7.24,-3.63 0.11,-18.29 0.23,-36.59 0.34,-54.88 15.15,-10.34 30.29,-20.68 45.44,-31.02 3.11,-2.13 2.5,-6.9 -1.04,-8.01 -17.17,-5.39 -34.34,-10.78 -51.52,-16.17 -4.73,-17.55 -9.47,-35.1 -14.21,-52.65 -0.98,-3.64 -5.68,-4.39 -7.88,-1.32 -10.73,14.96 -21.46,29.92 -32.18,44.88 -18.08,-0.5 -36.15,-1.01 -54.22,-1.52 -3.71,-0.1 -6.01,4.18 -3.84,7.2 10.54,14.64 21.09,29.28 31.63,43.91 -6.43,17.24 -12.86,34.48 -19.3,51.71 -1.31,3.52 1.93,7 5.51,5.77z"/>
  </g>
 </g>
</svg>
