<?xml version="1.0" encoding="UTF-8"?>
<!DOCTYPE svg PUBLIC "-//W3C//DTD SVG 1.1//EN" "http://www.w3.org/Graphics/SVG/1.1/DTD/svg11.dtd">
<!-- Creator: CorelDRAW 2021 (64-Bit) -->
<svg xmlns="http://www.w3.org/2000/svg" xml:space="preserve" width="100%" height="100%" version="1.1" style="shape-rendering:geometricPrecision; text-rendering:geometricPrecision; image-rendering:optimizeQuality; fill-rule:evenodd; clip-rule:evenodd"
viewBox="0 0 7691.62 3857.64"
 xmlns:xlink="http://www.w3.org/1999/xlink"
 xmlns:xodm="http://www.corel.com/coreldraw/odm/2003">
 <defs>
  <style type="text/css">
   <![CDATA[
    .fil0 {fill:#FEFEFE}
   ]]>
  </style>
    <clipPath id="id0">
     <path d="M7.18 0l7684.44 0 -7.18 3857.64 -7684.44 0 7.18 -3857.64z"/>
    </clipPath>
 </defs>
 <g id="Warstwa_x0020_1">
  <metadata id="CorelCorpID_0Corel-Layer"/>
  <g id="_2132627219456">
   <g style="clip-path:url(#id0)">
    <image x="-0" y="0" width="7691.62" height="3857.64" xlink:href="east_Images\east_ImgID1.jpg"/>
   </g>
  </g>
  <path class="fil0" d="M2628.8 2314.75c0,39.48 20.16,71.44 45.03,71.44 24.83,0 45,-31.96 45,-71.44 0,-39.45 -20.17,-71.44 -45,-71.44 -24.87,0 -45.03,31.99 -45.03,71.44zm207.08 -71.44c-24.86,0 -45.02,31.99 -45.02,71.44 0,39.48 20.16,71.44 45.02,71.44 24.84,0 45,-31.96 45,-71.44 0,-39.45 -20.16,-71.44 -45,-71.44zm-269.19 71.44c0,39.48 -20.16,71.44 -45.02,71.44 -24.84,0 -45.01,-31.96 -45.01,-71.44 0,-39.45 20.17,-71.44 45.01,-71.44 24.86,0 45.02,31.99 45.02,71.44zm-207.08 -71.44c24.86,0 45.02,31.99 45.02,71.44 0,39.48 -20.16,71.44 -45.02,71.44 -24.83,0 -45,-31.96 -45,-71.44 0,-39.45 20.17,-71.44 45,-71.44zm238.14 -191.36l254.8 0c-9.82,-19.03 -20.32,-37.34 -31.46,-54.67l-223.34 0 -223.35 0c-11.13,17.33 -21.64,35.64 -31.46,54.67l254.81 0zm48.13 -294.38c88.97,-5.48 137.28,-29.34 157.83,-56.06 12.36,-16.06 12.56,-32.73 4.8,-44.1 -8.26,-12.1 -25.4,-19.08 -46.99,-14.66 -33.91,6.95 -75.97,39.35 -115.64,114.82zm-228.07 -98.79c13.5,30.84 54.61,65.58 139.58,92.3 -20.32,-82.74 -53.33,-124.29 -84.55,-139.19 -19.89,-9.49 -38.2,-6.85 -49.12,2.89 -10.26,9.15 -14.05,25.4 -5.91,44zm2705.65 655.97c0,39.48 20.16,71.44 45.02,71.44 24.84,0 45.01,-31.96 45.01,-71.44 0,-39.45 -20.17,-71.44 -45.01,-71.44 -24.86,0 -45.02,31.99 -45.02,71.44zm207.08 -71.44c-24.86,0 -45.02,31.99 -45.02,71.44 0,39.48 20.16,71.44 45.02,71.44 24.83,0 45,-31.96 45,-71.44 0,-39.45 -20.17,-71.44 -45,-71.44zm-269.19 71.44c0,39.48 -20.16,71.44 -45.02,71.44 -24.84,0 -45.01,-31.96 -45.01,-71.44 0,-39.45 20.17,-71.44 45.01,-71.44 24.86,0 45.02,31.99 45.02,71.44zm-207.08 -71.44c24.86,0 45.02,31.99 45.02,71.44 0,39.48 -20.16,71.44 -45.02,71.44 -24.84,0 -45,-31.96 -45,-71.44 0,-39.45 20.16,-71.44 45,-71.44zm238.14 -191.36l254.79 0c-9.81,-19.03 -20.32,-37.34 -31.45,-54.67l-223.34 0 -223.35 0c-11.14,17.33 -21.64,35.64 -31.46,54.67l254.81 0zm48.13 -294.38c88.97,-5.48 137.28,-29.34 157.83,-56.06 12.36,-16.06 12.56,-32.73 4.8,-44.1 -8.26,-12.1 -25.4,-19.08 -46.99,-14.66 -33.91,6.95 -75.97,39.35 -115.64,114.82zm-228.07 -98.79c13.49,30.84 54.61,65.58 139.58,92.3 -20.32,-82.74 -53.33,-124.29 -84.56,-139.19 -19.88,-9.49 -38.19,-6.85 -49.11,2.89 -10.26,9.15 -14.05,25.4 -5.91,44zm179.94 939.96l282.19 0c10.99,-17.04 20.24,-35.33 27.83,-54.67l-310.02 0 -310.03 0c7.59,19.34 16.84,37.63 27.83,54.67l282.2 0zm-3738.66 -1089.39c23.65,0 42.83,-15.3 42.83,-34.17 0,-18.88 -19.18,-34.18 -42.83,-34.18 -23.65,0 -42.82,15.3 -42.82,34.18 0,18.87 19.17,34.17 42.82,34.17zm93.32 468.36c-52.11,-18.94 -81.03,-47.77 -92.87,-83.87 -14.26,39.25 -47.54,65.63 -90.94,85.16 40.9,2.5 72.97,-10.22 91.58,-46.27 10.15,36.55 45.23,47 92.23,44.98zm1.34 -39.19c56.66,-30.61 101.99,-19.52 139.79,19.28 -43.74,-23.69 -90.29,-30.29 -139.79,-19.28zm-26.86 -6.42c48.47,-69.57 114.68,-87.26 195.7,-61.71 -70.5,-2.91 -136.33,14.92 -195.7,61.71zm-162.15 5.45c-56.66,-30.62 -101.98,-19.52 -139.78,19.28 43.73,-23.69 90.29,-30.29 139.78,-19.28zm26.86 -6.42c-48.46,-69.57 -114.68,-87.26 -195.7,-61.71 70.5,-2.91 136.34,14.92 195.7,61.71zm39.16 -93.2c-21.95,-38.02 -16.74,-46.74 27.17,-46.74 43.91,0 49.61,8.72 27.66,46.74 -21.94,38.01 -32.89,38.01 -54.83,0zm158.84 -168.54c19.52,0 35.35,27.48 35.35,61.38 0,33.89 -15.83,61.38 -35.35,61.38 -19.52,0 -35.35,-27.49 -35.35,-61.38 0,-33.9 15.83,-61.38 35.35,-61.38zm-262.86 -1.92c19.52,0 35.34,27.47 35.34,61.37 0,33.9 -15.82,61.38 -35.34,61.38 -19.52,0 -35.35,-27.48 -35.35,-61.38 0,-33.9 15.83,-61.37 35.35,-61.37zm-273.47 654.03c55.35,-24.87 128.13,17.04 162.54,93.62 34.43,76.58 17.46,158.83 -37.88,183.71 -55.36,24.88 -128.13,-17.03 -162.55,-93.62 -34.42,-76.58 -17.46,-158.83 37.89,-183.71zm808.13 -0.8c-55.35,-24.88 -128.12,17.03 -162.55,93.61 -34.42,76.59 -17.46,158.84 37.89,183.72 55.35,24.87 128.13,-17.04 162.55,-93.62 34.42,-76.59 17.46,-158.84 -37.89,-183.71zm-750.57 661.35c144,0 225.44,85.3 225.44,128.44 0,45.11 -444.92,45.89 -444.92,0 0,-43.14 75.49,-128.44 219.48,-128.44zm99.68 -332.52c-0.67,9.6 -1.02,19.14 -1.03,28.59 -11.23,225.33 174.49,245.09 253.75,244.57 82.53,-0.55 260.19,-19.14 243.83,-272.04l48.68 13.04c-3.1,170.99 -46.14,303.39 -292.53,303.39 -246.38,0 -299.09,-128.08 -304.6,-303.39l51.9 -14.16zm425.08 -228.42c-39.39,-69.89 -90.58,-123 -141.76,-137.32 -27.19,-10.54 -54.38,-9.44 -81.57,3.4 -48.29,18.32 -95.9,69.9 -132.83,136.25l-19.13 -41.36c126.25,-205.76 258.66,-211.69 397.82,0l-22.53 39.03zm-42.78 40.26c-12.24,-10.34 -22.34,-12.39 -40.88,-32.63 -4.86,-5.32 -10.62,-13.81 -14.12,-22.51 -5.94,-14.73 -2.98,-19.6 2.07,-30.96 -16.72,-1.03 -28.55,2.75 -28.97,19.56 -0.91,36.75 52.39,61.29 81.9,66.54zm-274.14 -29.49c25.46,0.26 25.87,12.37 42.05,17.08 13.53,3.94 40.19,-2.43 54.82,-4.33 -0.08,-5.81 -10.26,-16.34 -14.16,-19.12 -6.69,-4.78 -16.43,-8.03 -26.29,-8.8 -17.13,-1.35 -48.52,6.6 -56.42,15.17zm148.09 22.04c-6.22,-5.72 -15.39,-11.79 -23.37,-20.97 -21.26,-24.46 -21.24,-55.09 -2.83,-81.38 3.49,-4.98 7.31,-8.67 9.81,-12.79 -44.06,6.94 -70.27,59.49 -21.44,95.69 10.61,7.86 23.29,16.06 37.83,19.45zm-153.08 71.97c14.95,6.79 24.2,12.48 44.28,7.61 33.76,-8.18 63.35,-45.99 91.57,-62.28 3.36,-1.94 6.36,-2.63 9.38,-4.43 -9.65,-5.32 -35.03,-5.55 -45.9,-1.91 -16.06,5.39 -35.82,20.92 -47.55,32.04 -15.73,14.92 -20.86,24.3 -45.95,27.31 -0.39,0.05 -2.34,0.27 -2.68,0.36l-2.39 0.9c-0.18,0.08 -0.53,0.24 -0.76,0.4zm-49.35 145.1c5.69,27.97 30.72,35.69 56.03,35.75 -6.02,17.62 -14.5,29.91 -10.71,55.75 2.3,15.65 7.24,24.47 15.65,35.92 2.52,3.44 6.14,6.08 8.64,8.86 -16.77,-29.66 -8.57,-86.44 13.65,-103.47 3.51,-2.68 6.81,-3.92 10.59,-6.58 8.78,-6.19 19.3,-17.09 25.44,-26.16 9.16,-13.52 18.29,-30.96 17.69,-51.82l-2.7 4.4c-6.96,14.3 -7.6,15.62 -19.04,28.28 -16.97,18.77 -47.1,33.18 -74.35,33.47 -26.7,0.29 -33.18,-10.35 -40.89,-14.4zm195.15 203.86c-14.44,-3.42 -34.24,-18.04 -40.75,-25.72 -31.55,-37.26 -39.55,-84.74 -35.1,-133.92 0.89,-9.82 3.86,-21.01 4.28,-29.64 -9.87,8.15 -27.47,38.92 -32.35,52.04 -35.74,96.11 59.98,146.3 103.92,137.24zm173.51 -337.52c4.96,-45.77 -82,-76.87 -107.5,-90.76 -33.6,-18.29 -60.11,-80.35 -4.93,-89.3 -10.64,-6.92 -53.05,-6.05 -59.52,38.21 -4.96,33.99 15.65,56.8 35.62,68.05 35.06,19.73 78.87,11.46 130.22,66.64 3.03,3.26 3.48,4.64 6.11,7.16zm-73.17 86.75c18.61,-7.99 28.13,11.42 16.34,27.55 -28.71,39.31 -98.84,-9.09 -41.81,-66.49 24.85,-25 56.04,-29.68 84.77,-8.53 22.05,16.23 38.36,39.11 41.9,77.51l0.73 -1.63c4.35,-15.95 -5.1,-51.64 -15.03,-67.97 -39.74,-65.38 -134.02,-53.43 -162.61,11.65 -23.37,53.22 14.21,99.14 64.65,93.65 23.84,-2.6 43.94,-18.33 49.59,-37.41 8.87,-29.94 -31.75,-49.1 -38.53,-28.33zm-297.23 -20.51c13.72,31.55 56.21,34.06 86.74,29.94 49.09,-6.61 70.08,-54.74 95.55,-82.98l15.59 -14.54c56.33,-42.16 82.35,-18.58 120.19,-20.56 -5.54,-4.36 -34.91,-13.53 -43.93,-16.59 -34.67,-11.76 -65.17,-16.66 -98.28,4.38 -23.25,14.78 -42.88,40.44 -60.23,61.34 -14,16.86 -48.97,43.27 -71.11,50.39 -19.02,6.12 -34.39,-2.59 -44.52,-11.38zm295.96 199.79c-37.67,7.03 -66.56,-0.75 -92.34,-18.95 -20.72,-14.63 -40.6,-37.32 -44.29,-73.11l1.55 1.32c0.17,0.17 0.5,0.45 0.7,0.65l7.94 9.52c8.98,10.41 20.69,20.61 33.95,27.31 39.65,20.06 95.46,14.78 125.25,-15.51 6.45,-6.57 12.95,-12.23 17.19,-23.63 4.04,-10.86 2.95,-25.12 -3.16,-33.24 -3.21,20.67 -8.32,29.68 -20.69,39.47 -33.77,26.69 -106.09,24.42 -137.41,-11.68 -33.58,-38.7 0.37,-133.89 44.9,-165.77l5.14 -4.34c-27.52,7.18 -55.83,46.24 -67.78,69.58 -15.03,29.38 -30.32,71.04 -27.84,110.27 3.73,58.97 49.71,102.17 102.53,103.82 14.03,0.44 31.12,-2.92 43.23,-8.98 2.05,-1.04 3.59,-1.89 5.64,-2.95l5.49 -3.78zm206.34 -1719.76l-615.26 0c36.82,42.57 79.14,78.16 111.84,119.73 56.76,72.17 100.09,148.18 123.07,229.99 16.5,-18.68 43.74,-30.89 74.55,-30.89 30.93,0 58.25,12.3 74.73,31.1 22.47,-84.35 66.59,-162.52 124.88,-236.63 31.04,-39.46 70.75,-73.53 106.19,-113.3zm2188.62 425.17c23.65,0 42.82,-15.3 42.82,-34.18 0,-18.87 -19.17,-34.18 -42.82,-34.18 -23.65,0 -42.82,15.31 -42.82,34.18 0,18.88 19.17,34.18 42.82,34.18zm93.32 468.36c-52.11,-18.95 -81.03,-47.78 -92.87,-83.87 -14.26,39.25 -47.54,65.63 -90.94,85.15 40.89,2.5 72.97,-10.22 91.58,-46.27 10.15,36.55 45.22,47 92.23,44.99zm1.34 -39.2c56.66,-30.61 101.99,-19.51 139.78,19.28 -43.73,-23.69 -90.29,-30.29 -139.78,-19.28zm-26.86 -6.42c48.46,-69.56 114.68,-87.26 195.7,-61.7 -70.5,-2.92 -136.34,14.91 -195.7,61.7zm-162.15 5.45c-56.66,-30.61 -101.99,-19.51 -139.79,19.28 43.74,-23.69 90.3,-30.29 139.79,-19.28zm26.86 -6.42c-48.47,-69.57 -114.68,-87.26 -195.7,-61.7 70.5,-2.92 136.34,14.91 195.7,61.7zm39.15 -93.2c-21.94,-38.01 -16.73,-46.73 27.18,-46.73 43.9,0 49.6,8.72 27.66,46.73 -21.94,38.01 -32.89,38.01 -54.84,0zm158.85 -168.53c19.52,0 35.35,27.48 35.35,61.37 0,33.9 -15.83,61.38 -35.35,61.38 -19.52,0 -35.35,-27.48 -35.35,-61.38 0,-33.89 15.83,-61.37 35.35,-61.37zm-262.87 -1.93c19.53,0 35.35,27.48 35.35,61.37 0,33.9 -15.82,61.38 -35.35,61.38 -19.52,0 -35.35,-27.48 -35.35,-61.38 0,-33.89 15.83,-61.37 35.35,-61.37zm57.81 -234.14c-22.98,-81.82 -66.31,-157.83 -123.07,-230 -32.55,-41.37 -74.64,-76.83 -111.33,-119.14l614.22 0c-35.3,39.52 -74.78,73.45 -105.66,112.71 -58.3,74.12 -102.41,152.28 -124.88,236.63 -16.48,-18.8 -43.81,-31.09 -74.73,-31.09 -30.81,0 -58.06,12.2 -74.55,30.89zm-331.28 888.18c55.36,-24.88 128.13,17.03 162.55,93.62 34.42,76.58 17.46,158.83 -37.89,183.71 -55.35,24.87 -128.12,-17.04 -162.54,-93.62 -34.42,-76.58 -17.46,-158.83 37.88,-183.71zm808.14 -0.81c-55.35,-24.88 -128.13,17.04 -162.55,93.62 -34.42,76.58 -17.46,158.83 37.89,183.71 55.35,24.88 128.12,-17.04 162.55,-93.62 34.42,-76.58 17.45,-158.83 -37.89,-183.71zm-750.57 661.36c144,0 225.44,85.29 225.44,128.44 0,45.1 -444.92,45.88 -444.92,0 0,-43.15 75.48,-128.44 219.48,-128.44zm99.68 -332.52c-0.67,9.6 -1.02,19.13 -1.03,28.58 -11.23,225.33 174.49,245.09 253.75,244.57 82.53,-0.54 260.19,-19.14 243.83,-272.04l48.68 13.04c-3.1,170.99 -46.15,303.39 -292.53,303.39 -246.38,0 -299.09,-128.08 -304.6,-303.39l51.9 -14.15zm425.08 -228.43c-39.39,-69.89 -90.58,-123 -141.76,-137.32 -27.19,-10.53 -54.38,-9.43 -81.58,3.4 -48.28,18.32 -95.89,69.9 -132.83,136.25l-19.12 -41.36c126.25,-205.76 258.66,-211.68 397.82,0l-22.53 39.03zm160.32 560.95c144,0 225.44,85.29 225.44,128.44 0,45.1 -444.92,45.88 -444.92,0 0,-43.15 75.49,-128.44 219.48,-128.44zm2157.6 -1472.12c-23.65,0 -42.83,-15.3 -42.83,-34.17 0,-18.88 19.18,-34.18 42.83,-34.18 23.65,0 42.82,15.3 42.82,34.18 0,18.87 -19.17,34.17 -42.82,34.17zm-93.32 468.36c52.11,-18.94 81.03,-47.77 92.87,-83.87 14.26,39.25 47.54,65.63 90.94,85.16 -40.9,2.5 -72.97,-10.22 -91.58,-46.27 -10.15,36.55 -45.23,47 -92.23,44.98zm-1.34 -39.19c-56.66,-30.61 -101.99,-19.52 -139.79,19.28 43.74,-23.69 90.29,-30.29 139.79,-19.28zm26.86 -6.42c-48.47,-69.57 -114.68,-87.26 -195.7,-61.71 70.5,-2.91 136.33,14.92 195.7,61.71zm162.15 5.45c56.66,-30.62 101.98,-19.52 139.78,19.28 -43.73,-23.69 -90.29,-30.29 -139.78,-19.28zm-26.86 -6.42c48.46,-69.57 114.68,-87.26 195.7,-61.71 -70.5,-2.91 -136.34,14.92 -195.7,61.71zm-39.16 -93.2c21.95,-38.02 16.74,-46.74 -27.17,-46.74 -43.91,0 -49.61,8.72 -27.66,46.74 21.94,38.01 32.89,38.01 54.83,0zm-158.84 -168.54c-19.52,0 -35.35,27.48 -35.35,61.38 0,33.89 15.83,61.38 35.35,61.38 19.52,0 35.35,-27.49 35.35,-61.38 0,-33.9 -15.83,-61.38 -35.35,-61.38zm262.86 -1.92c-19.52,0 -35.34,27.47 -35.34,61.37 0,33.9 15.82,61.38 35.34,61.38 19.52,0 35.35,-27.48 35.35,-61.38 0,-33.9 -15.83,-61.37 -35.35,-61.37zm-57.8 -234.15c22.98,-81.81 66.31,-157.82 123.07,-229.99 32.7,-41.57 75.02,-77.16 111.84,-119.73l-615.26 0c35.44,39.77 75.15,73.84 106.19,113.3 58.29,74.11 102.41,152.28 124.88,236.63 16.48,-18.8 43.8,-31.1 74.73,-31.1 30.81,0 58.05,12.21 74.55,30.89zm331.27 888.18c-55.35,-24.87 -128.13,17.04 -162.54,93.62 -34.43,76.58 -17.46,158.83 37.88,183.71 55.36,24.88 128.13,-17.03 162.55,-93.62 34.42,-76.58 17.46,-158.83 -37.89,-183.71zm-808.13 -0.8c55.35,-24.88 128.12,17.03 162.55,93.61 34.42,76.59 17.46,158.84 -37.89,183.72 -55.35,24.87 -128.13,-17.04 -162.55,-93.62 -34.42,-76.59 -17.46,-158.84 37.89,-183.71zm750.57 661.35c-144,0 -225.44,85.3 -225.44,128.44 0,45.11 444.92,45.89 444.92,0 0,-43.14 -75.49,-128.44 -219.48,-128.44zm-99.68 -332.52c0.67,9.6 1.02,19.14 1.03,28.59 11.23,225.33 -174.49,245.09 -253.75,244.57 -82.53,-0.55 -260.19,-19.14 -243.83,-272.04l-48.68 13.04c3.1,170.99 46.14,303.39 292.53,303.39 246.38,0 299.09,-128.08 304.6,-303.39l-51.9 -14.16zm-425.08 -228.42c39.39,-69.89 90.58,-123 141.76,-137.32 27.19,-10.54 54.38,-9.44 81.57,3.4 48.29,18.32 95.9,69.9 132.83,136.25l19.13 -41.36c-126.25,-205.76 -258.66,-211.69 -397.82,0l22.53 39.03zm-160.33 560.94c-143.99,0 -225.43,85.3 -225.43,128.44 0,45.11 444.92,45.89 444.92,0 0,-43.14 -75.49,-128.44 -219.49,-128.44zm-1713.86 -1898.45c8.8,173.83 -55.69,509.05 -151.81,608.28 14.41,36.92 22.35,77.23 22.35,119.43 0,104.13 -48.26,196.68 -123.04,255.4 73.09,53.57 129.21,121.31 164.9,206.03 161.32,-40.69 184.95,169.07 111.19,275.72 157.63,73.87 181.11,256.23 133.04,467.24 127,110.81 87.66,186.15 -12.84,185.97l-458.24 -0.85c-56.26,-0.11 -88.29,-27.7 -80.35,-43.73 -34.77,0 -69.53,0 -104.29,0 7.94,16.03 -24.09,43.62 -80.35,43.73l-458.24 0.85c-100.5,0.18 -139.84,-75.16 -12.84,-185.97 -48.07,-211.01 -24.59,-393.37 133.04,-467.24 -73.76,-106.65 -50.13,-316.41 111.19,-275.72 36.46,-86.54 94.22,-155.34 169.61,-209.44 -72.34,-58.86 -118.76,-149.85 -118.76,-251.99 0,-40.3 7.25,-78.87 20.45,-114.42 -96.59,-102.19 -160.84,-442.23 -150.12,-613.29l-770.75 0 0 591c38.83,-51.48 79.54,-76.33 114.93,-83.58 44.48,-9.11 81.7,8.05 101.2,36.6 19.99,29.27 21.35,69.75 -6.66,106.17 -20.81,27.06 -59.47,51.96 -121.28,65.96 19.66,13.9 38.98,30.86 57.7,50.38 0.05,0.06 0.11,0.12 0.16,0.17 35.88,37.45 69.52,84.3 99,137l0.67 -1.46c69.56,124.77 103.97,268.17 111.93,367.81l-0.4 -0.12c1.64,23.21 2.11,46.2 1.34,68.79 2.98,217.1 -112.42,308.92 -229.28,346.83 -36.69,12.56 -78.47,20.64 -125.59,23.65 -4.85,0.37 -9.62,0.67 -14.26,0.92 -0.32,0.01 -0.63,0.03 -0.95,0.05 -9.43,0.49 -18.39,0.75 -26.8,0.86 -8.41,-0.11 -17.38,-0.37 -26.8,-0.86 -0.32,-0.02 -0.63,-0.04 -0.95,-0.05 -4.65,-0.25 -9.42,-0.55 -14.27,-0.92 -47.11,-3.01 -88.9,-11.09 -125.59,-23.65 -116.86,-37.91 -232.26,-129.73 -229.28,-346.83 -0.77,-22.59 -0.3,-45.58 1.34,-68.79l-0.4 0.12c7.96,-99.64 42.37,-243.04 111.93,-367.81l0.67 1.46c29.48,-52.7 63.12,-99.55 99,-137 0.05,-0.05 0.11,-0.11 0.16,-0.17 26.33,-27.46 53.86,-49.85 81.83,-65.79 -72,-30.64 -110.46,-68.96 -125.99,-104.45 -18.4,-42.05 -7.32,-81.01 19.15,-104.62 25.8,-23.03 66.07,-30.73 107.05,-11.18 22.67,10.82 45.8,30.52 66.29,61.46l0 -541.95 -764.44 0c8.98,173.66 -55.54,509.53 -151.78,608.86 14.41,36.92 22.35,77.23 22.35,119.44 0,104.13 -48.25,196.68 -123.04,255.4 73.09,53.57 129.21,121.3 164.91,206.03 161.31,-40.69 184.94,169.07 111.18,275.72 157.63,73.87 181.12,256.23 133.04,467.24 127,110.81 87.66,186.15 -12.84,185.96l-458.24 -0.85c-56.26,-0.1 -88.28,-27.69 -80.35,-43.72 -34.76,0 -69.52,0 -104.28,0 7.93,16.03 -24.1,43.62 -80.36,43.72l-458.23 0.85c-100.51,0.19 -139.84,-75.15 -12.84,-185.96 -48.08,-211.01 -24.6,-393.37 133.03,-467.24 -73.76,-106.65 -50.13,-316.41 111.19,-275.72 36.46,-86.54 94.22,-155.34 169.62,-209.45 -72.35,-58.86 -118.76,-149.84 -118.76,-251.98 0,-40.31 7.24,-78.87 20.44,-114.43 -96.69,-102.3 -160.98,-443 -150.08,-613.87l-245.44 0 0 -423.74 6355.97 0 0 423.74 -239.01 0c10.9,170.87 -53.39,511.57 -150.08,613.87 13.2,35.56 20.44,74.12 20.44,114.43 0,102.14 -46.41,193.12 -118.76,251.98 75.4,54.11 133.16,122.91 169.62,209.45 161.32,-40.69 184.95,169.07 111.19,275.72 157.63,73.87 181.11,256.23 133.03,467.24 127,110.81 87.67,186.15 -12.84,185.96l-458.23 -0.85c-56.26,-0.1 -88.29,-27.69 -80.36,-43.72 -34.76,0 -69.52,0 -104.28,0 7.93,16.03 -24.09,43.62 -80.35,43.72l-458.24 0.85c-100.5,0.19 -139.84,-75.15 -12.84,-185.96 -48.08,-211.01 -24.59,-393.37 133.04,-467.24 -73.76,-106.65 -50.13,-316.41 111.18,-275.72 35.7,-84.73 91.82,-152.46 164.91,-206.03 -74.79,-58.72 -123.04,-151.27 -123.04,-255.4 0,-42.21 7.94,-82.52 22.35,-119.44 -96.24,-99.33 -160.76,-435.2 -151.78,-608.86l-768.19 0 0 591c38.83,-51.48 79.54,-76.33 114.93,-83.58 44.48,-9.11 81.7,8.05 101.2,36.6 19.99,29.27 21.34,69.75 -6.66,106.17 -20.82,27.06 -59.47,51.96 -121.28,65.96 19.66,13.9 38.98,30.86 57.7,50.38 0.05,0.06 0.11,0.12 0.16,0.17 35.88,37.45 69.52,84.3 99,137l0.67 -1.46c69.56,124.77 103.97,268.17 111.93,367.81l-0.4 -0.12c1.64,23.21 2.11,46.2 1.34,68.79 2.98,217.1 -112.42,308.92 -229.28,346.83 -36.69,12.56 -78.48,20.64 -125.59,23.65 -4.85,0.37 -9.62,0.67 -14.27,0.92 -0.32,0.01 -0.63,0.03 -0.95,0.05 -9.42,0.49 -18.38,0.75 -26.79,0.86 -8.42,-0.11 -17.38,-0.37 -26.8,-0.86 -0.33,-0.02 -0.63,-0.04 -0.96,-0.05 -4.64,-0.25 -9.41,-0.55 -14.26,-0.92 -47.11,-3.01 -88.9,-11.09 -125.59,-23.65 -116.86,-37.91 -232.26,-129.73 -229.28,-346.83 -0.77,-22.59 -0.3,-45.58 1.34,-68.79l-0.4 0.12c7.96,-99.64 42.37,-243.04 111.93,-367.81l0.67 1.46c29.48,-52.7 63.12,-99.55 99,-137 0.05,-0.05 0.11,-0.11 0.16,-0.17 26.33,-27.46 53.86,-49.85 81.83,-65.79 -72,-30.64 -110.46,-68.96 -125.99,-104.45 -18.4,-42.05 -7.32,-81.01 19.15,-104.62 25.8,-23.03 66.07,-30.73 107.04,-11.18 22.68,10.82 45.8,30.52 66.29,61.46l0 -541.95 -764.64 0zm-507.88 1664.82c16.97,0 30.74,-13.77 30.73,-30.74 0,-16.97 -13.76,-30.73 -30.73,-30.73 -16.97,0 -30.74,13.76 -30.74,30.73 0,16.97 13.77,30.74 30.74,30.74zm-118.58 0c16.97,0 30.74,-13.77 30.74,-30.74 0,-16.97 -13.77,-30.73 -30.74,-30.73 -12.58,0 -23.39,7.56 -28.15,18.38 1.39,11.6 3.45,22.91 6.2,33.86 5.58,5.69 13.35,9.23 21.95,9.23zm4.12 -134.46l52.35 52.37c1.47,1.46 3.46,2.29 5.55,2.29 2.09,0 4.08,-0.83 5.55,-2.29l52.38 -52.37 52.38 52.37c3.06,3.06 8.03,3.06 11.1,0l52.37 -52.37 52.38 52.37c1.48,1.46 3.47,2.29 5.55,2.29 2.09,0 4.08,-0.83 5.55,-2.29l52.36 -52.37 41.73 41.73c-0.07,-2.48 -0.11,-4.95 -0.24,-7.45l0 -0.02c-0.21,-4.29 -0.49,-8.6 -0.85,-12.92l0 -0.02c-0.71,-8.65 -1.71,-17.34 -2.98,-26.05 -0.72,-4.95 -1.56,-9.9 -2.45,-14.85l-29.67 -29.66c-2.94,-2.95 -8.14,-2.95 -11.09,0l-52.36 52.36 -52.37 -52.36c-3.07,-3.07 -8.04,-3.07 -11.1,0l-52.38 52.36 -52.38 -52.36c-3.06,-3.07 -8.03,-3.07 -11.1,0l-52.38 52.36 -52.35 -52.36c-2.95,-2.95 -8.16,-2.95 -11.1,0l-20.55 20.54c-1.61,7.98 -3.03,15.98 -4.2,23.98 -1.27,8.7 -2.26,17.4 -2.98,26.05 -0.35,4.27 -0.63,8.54 -0.84,12.78l34.12 -34.11zm27.92 -105.55c0,16.98 13.77,30.74 30.74,30.74 16.97,0 30.73,-13.76 30.73,-30.74 0,-16.97 -13.76,-30.73 -30.73,-30.73 -16.97,0 -30.74,13.76 -30.74,30.73zm-14 -40.19c43.83,-14.06 100.08,-22.36 159.84,-22.36 63.86,0 123.72,9.48 168.7,25.35 -0.1,-0.2 -0.19,-0.4 -0.29,-0.61 -1.89,-3.86 -3.83,-7.69 -5.81,-11.45l-0.02 -0.04 -0.01 -0.01c-1.98,-3.77 -4.01,-7.51 -6.08,-11.17l-0.02 -0.03c-2.08,-3.67 -4.19,-7.3 -6.36,-10.87 -2.16,-3.56 -4.36,-7.08 -6.61,-10.52 -1.68,-2.57 -3.4,-5.09 -5.13,-7.6 -41.28,-9.59 -88.6,-14.91 -138.37,-14.91 -46.32,0 -90.52,4.61 -129.7,12.98 -2.18,3.12 -4.33,6.29 -6.43,9.52l-0.02 0.02c-2.24,3.45 -4.44,6.95 -6.6,10.51l-0.01 0.02c-2.15,3.56 -4.27,7.17 -6.34,10.84l-0.03 0.05c-2.07,3.66 -4.1,7.39 -6.08,11.16l-0.02 0.03c-1.57,2.99 -3.09,6.04 -4.61,9.09zm309.96 -31.17l0 0zm18.3 33.56l0 0zm-168.42 7.07c-16.97,0 -30.74,13.76 -30.74,30.73 0,16.98 13.77,30.74 30.74,30.74 16.97,0 30.73,-13.76 30.73,-30.74 0,-16.97 -13.76,-30.73 -30.73,-30.73zm115.09 0c-16.97,0 -30.73,13.76 -30.73,30.73 0,16.98 13.76,30.74 30.73,30.74 16.98,0 30.74,-13.76 30.74,-30.74 0,-16.97 -13.76,-30.73 -30.74,-30.73zm62.79 209.27c-16.98,0 -30.75,13.76 -30.75,30.73 0,16.97 13.77,30.74 30.75,30.74 16.97,0 30.73,-13.77 30.73,-30.74 0,-16.97 -13.76,-30.73 -30.73,-30.73zm-87.85 30.73c0,-16.97 -13.76,-30.73 -30.74,-30.73 -16.97,0 -30.73,13.76 -30.73,30.73 0,16.97 13.76,30.74 30.73,30.74 16.98,0 30.74,-13.77 30.74,-30.74zm103.21 61.28c-53.9,16.34 -121.77,25.8 -193.24,25.8 -67.71,0 -132.18,-8.49 -184.6,-23.27 1.27,2.6 2.53,5.19 3.91,7.72l0.02 0.03c1.8,3.32 3.71,6.57 5.7,9.75l0.02 0.02c2,3.19 4.1,6.3 6.3,9.34l0.01 0.01c4.4,6.09 9.19,11.87 14.4,17.32l0.02 0.02c2.52,2.63 5.14,5.18 7.85,7.65 44.79,8.57 94.48,13.26 146.37,13.26 55.5,0 108.47,-5.36 155.62,-15.1 2.03,-1.91 4.06,-3.82 5.98,-5.83 2.6,-2.72 5.1,-5.53 7.5,-8.41l0.02 -0.02c2.39,-2.88 4.68,-5.84 6.88,-8.88l0.02 -0.04c2.2,-3.03 4.29,-6.13 6.29,-9.31l0.02 -0.04c2,-3.18 3.91,-6.43 5.72,-9.76 1.82,-3.35 3.55,-6.77 5.19,-10.26zm-31.65 46.73l0 0zm2135.69 -203.22c13.19,3.54 24.87,6.51 37.33,6.48 12.67,0 22.89,-2.62 34.83,-5.85 11.78,-3.16 25.24,-6.93 42.84,-6.94 22.41,0 40.36,4.4 54.87,8.4 14.49,4.1 26.13,7.43 33.78,7.28 7.57,0.11 18.14,-2.79 30.77,-6.43 12.62,-3.53 27.68,-7.58 46.13,-7.6 18.42,0.03 34.66,3.97 49.02,7.49 14.28,3.6 27.02,6.64 35.72,6.54 8.46,0.09 19.01,-2.86 31.51,-6.61 4.83,-1.39 9.99,-2.88 15.56,-4.17 -1.47,-12.39 -3.49,-24.83 -6.04,-37.22 -9.23,-1.88 -18.01,-3.16 -25.6,-3.13 -12.38,-0.02 -23.99,3 -36.23,6.61 -12.22,3.47 -24.82,7.74 -40.67,7.83 -15.64,-0.1 -29.57,-4.07 -43.73,-7.48 -14.09,-3.5 -28.05,-6.58 -41.01,-6.54 -12.93,-0.02 -24.95,2.94 -37.23,6.42 -12.29,3.38 -24.49,7.49 -39.67,7.6 -15.87,-0.15 -28.58,-4.67 -42.51,-8.4 -13.92,-3.85 -28.56,-7.28 -46.14,-7.28 -12.22,0 -22.28,2.61 -34.25,5.86 -6.19,1.66 -12.91,3.47 -20.49,4.83 -1.97,10.28 -3.6,20.59 -4.83,30.87 2.24,0.49 4.27,0.97 6.04,1.44zm203.65 -106.56c7.57,0.11 18.14,-2.79 30.77,-6.43 12.62,-3.53 27.68,-7.58 46.13,-7.6 18.42,0.03 34.66,3.97 49.02,7.49 14.28,3.6 27.02,6.64 35.72,6.54 5.81,0.06 12.6,-1.31 20.34,-3.39 -6.01,-15.98 -12.79,-31.5 -20.28,-46.33 -6.92,1.22 -13.79,3.11 -20.86,5.2 -12.22,3.47 -24.82,7.74 -40.67,7.83 -15.64,-0.1 -29.57,-4.07 -43.73,-7.48 -14.09,-3.5 -28.05,-6.58 -41.01,-6.54 -12.93,-0.02 -24.95,2.94 -37.23,6.43 -12.29,3.37 -24.49,7.48 -39.67,7.59 -15.87,-0.15 -28.58,-4.67 -42.51,-8.4 -13.92,-3.85 -28.56,-7.27 -46.14,-7.27 -4.06,-0.01 -7.89,0.28 -11.62,0.78 -7.7,15.08 -14.69,30.88 -20.84,47.18 5.4,0.95 10.75,1.52 16.26,1.51 12.67,0 22.89,-2.62 34.83,-5.85 11.78,-3.15 25.24,-6.93 42.84,-6.94 22.41,0 40.36,4.4 54.87,8.41 14.49,4.1 26.13,7.42 33.78,7.27zm-33.78 -123.2c14.49,4.1 26.13,7.42 33.78,7.27 7.57,0.11 18.14,-2.79 30.77,-6.43 12.62,-3.53 27.68,-7.58 46.13,-7.6 12.51,0.03 24.02,1.85 34.62,4.12 -9.22,-10.59 -18.89,-20.09 -28.89,-28.38 -8.94,-1.49 -17.52,-3.79 -26.19,-5.88 -14.09,-3.5 -28.05,-6.57 -41.01,-6.54 -12.93,-0.02 -24.95,2.94 -37.23,6.43 -12.29,3.37 -24.49,7.48 -39.67,7.59 -7.53,-0.07 -14.35,-1.13 -20.93,-2.61 -9.11,7.44 -17.95,15.93 -26.44,25.3 6.12,-1.01 12.79,-1.68 20.19,-1.68 22.41,0 40.36,4.4 54.87,8.41zm49.21 304.35c-12.93,-0.02 -24.95,2.94 -37.23,6.42 -12.29,3.37 -24.49,7.49 -39.67,7.6 -15.87,-0.16 -28.58,-4.67 -42.51,-8.4 -13.92,-3.85 -28.56,-7.28 -46.14,-7.28 -12.22,0 -22.28,2.61 -34.25,5.85 -7.58,2.04 -15.96,4.3 -25.71,5.66 1.32,10.69 3.19,21.15 5.67,31.29l0.76 0.2c13.19,3.54 24.87,6.5 37.33,6.47 12.67,0.01 22.89,-2.62 34.83,-5.84 11.78,-3.16 25.24,-6.93 42.84,-6.94 22.41,0 40.36,4.4 54.87,8.4 14.49,4.1 26.13,7.43 33.78,7.28 7.57,0.11 18.14,-2.79 30.77,-6.43 12.62,-3.53 27.68,-7.58 46.13,-7.6 18.42,0.03 34.66,3.97 49.02,7.49 14.28,3.59 27.02,6.64 35.72,6.54 8.46,0.09 19.01,-2.87 31.51,-6.61 3.26,-0.94 6.67,-1.92 10.25,-2.86 2.93,-11.93 5.05,-24.29 6.37,-36.98 -11.79,-2.7 -23.18,-4.72 -32.7,-4.68 -12.38,-0.03 -23.99,3 -36.23,6.61 -12.22,3.47 -24.82,7.74 -40.67,7.83 -15.64,-0.1 -29.57,-4.07 -43.73,-7.49 -14.09,-3.49 -28.05,-6.57 -41.01,-6.53zm0 115.93c-12.93,-0.02 -24.95,2.94 -37.23,6.42 -12.29,3.37 -24.49,7.49 -39.67,7.6 -15.87,-0.16 -28.58,-4.67 -42.51,-8.4 -13.92,-3.85 -28.56,-7.28 -46.14,-7.28 -6.84,0 -13.01,0.83 -19.21,2.12 12.07,15.54 26.87,28.98 44.7,39.69 10.14,-2.63 21.7,-5.11 35.98,-5.13 22.41,0 40.36,4.41 54.87,8.41 14.49,4.1 26.13,7.43 33.78,7.27 7.57,0.12 18.14,-2.78 30.77,-6.42 12.62,-3.53 27.68,-7.58 46.13,-7.6 15.71,0.03 29.84,2.9 42.57,5.92 19.87,-11.17 36.15,-25.62 49.2,-42.56 -9.33,0.95 -18.39,3.36 -27.83,6.15 -12.22,3.47 -24.82,7.73 -40.67,7.83 -15.64,-0.1 -29.57,-4.07 -43.73,-7.49 -14.09,-3.49 -28.05,-6.57 -41.01,-6.53zm-4669.1 169.06c143.99,0 225.43,85.3 225.43,128.44 0,45.11 -444.92,45.89 -444.92,0 0,-43.14 75.49,-128.44 219.49,-128.44zm907.17 -383.31l282.19 0c10.99,-17.04 20.24,-35.33 27.83,-54.67l-310.02 0 -310.03 0c7.59,19.34 16.84,37.63 27.83,54.67l282.2 0z"/>
 </g>
</svg>
