<?xml version="1.0" encoding="UTF-8"?>
<!DOCTYPE svg PUBLIC "-//W3C//DTD SVG 1.1//EN" "http://www.w3.org/Graphics/SVG/1.1/DTD/svg11.dtd">
<!-- Creator: CorelDRAW 2021 (64-Bit) -->
<svg xmlns="http://www.w3.org/2000/svg" xml:space="preserve" width="100%" height="100%" version="1.1" style="shape-rendering:geometricPrecision; text-rendering:geometricPrecision; image-rendering:optimizeQuality; fill-rule:evenodd; clip-rule:evenodd"
viewBox="0 0 18059.96 18059.96"
 xmlns:xlink="http://www.w3.org/1999/xlink"
 xmlns:xodm="http://www.corel.com/coreldraw/odm/2003">
 <defs>
  <style type="text/css">
   <![CDATA[
    .fil0 {fill:#4C95A8}
   ]]>
  </style>
 </defs>
 <g id="Warstwa_x0020_1">
  <metadata id="CorelCorpID_0Corel-Layer"/>
  <path class="fil0" d="M-0 8888.89c0,596.15 55.95,884 502.26,1331.95 250.65,251.58 618.74,477.82 1120.7,466.6 445.92,-9.97 317.07,-38.97 317.07,1270.23 0,961.72 -70.24,4214.3 62.52,4699.39 207.02,756.44 974.03,1402.9 1771.7,1402.9l2998.24 0c674.36,0 529.1,-821.47 529.1,-1199.29l-0.84 -3457.63c-3.12,-575.26 348.15,-986.82 776.85,-986.82l1904.76 0c245.18,0 432.71,155.87 556.9,289.66 147.28,158.65 220.71,361.58 220.37,661.47 -0.59,506.06 -44.89,4099.37 18.71,4319.91 60.05,208.19 254.4,372.7 509.14,372.7l2998.23 0c455.93,0 887.94,-226.32 1137.99,-449.31 833.94,-743.67 696.23,-1323.95 696.23,-2478.38l-0.02 -3950.63c-0.73,-447.51 -113.9,-503.84 317.09,-494.2 921.2,20.6 1571.23,-753.49 1622.96,-1576.29l0 -211.06c-17.06,-268 -100.04,-534.43 -260.34,-773.79 -229.91,-343.3 -6367.58,-6412.07 -7226.43,-7270.92 -631.45,-631.46 -763.97,-855.38 -1684.3,-855.38 -641.39,0 -1050.15,503.41 -1384.48,837.74l-6666.67 6666.67c-334.33,334.33 -837.74,743.09 -837.74,1384.48z"/>
 </g>
</svg>
